SplineFontDB: 3.0
FontName: Untitled1
FullName: Untitled1
FamilyName: Untitled1
Weight: Regular
Copyright: Copyright (c) 2019, Jack
UComments: "2019-8-23: Created with FontForge (http://fontforge.org)"
Version: 001.000
ItalicAngle: 0
UnderlinePosition: -329
UnderlineWidth: 35
Ascent: 630
Descent: 370
InvalidEm: 0
LayerCount: 2
Layer: 0 0 "Back" 1
Layer: 1 0 "Fore" 0
XUID: [1021 647 -312734098 29385]
StyleMap: 0x0000
FSType: 0
OS2Version: 0
OS2_WeightWidthSlopeOnly: 0
OS2_UseTypoMetrics: 1
CreationTime: 1566577596
ModificationTime: 1567352880
OS2TypoAscent: 0
OS2TypoAOffset: 1
OS2TypoDescent: 0
OS2TypoDOffset: 1
OS2TypoLinegap: 90
OS2WinAscent: 0
OS2WinAOffset: 1
OS2WinDescent: 0
OS2WinDOffset: 1
HheadAscent: 0
HheadAOffset: 1
HheadDescent: 0
HheadDOffset: 1
Lookup: 6 0 0 "semivowels" { "semivowels contextual 0"  "semivowels contextual 1"  } ['liga' ('latn' <'dflt' > 'DFLT' <'dflt' > ) ]
Lookup: 1 0 0 "Single Substitution lookup 1" { "Single Substitution lookup 1 subtable"  } []
Lookup: 1 0 0 "Single Substitution lookup 2" { "Single Substitution lookup 2 subtable"  } []
Lookup: 4 0 1 "diphthongs" { "diphthongs subtable"  } ['liga' ('latn' <'dflt' > 'DFLT' <'dflt' > ) ]

StartChar: ny
Encoding: 0 60256 0
Width: 810
VWidth: 2197
Flags: W
HStem: 35 40<152 659> 309 40<152 659> 582 40<152 659>
VStem: 112 40<75 309 349 582> 659 40<75 309 349 582>
CounterMasks: 1 e0
AnchorPoint: "Above" 405 0 basechar 0
LayerCount: 2
Back
SplineSet
131.868164062 602.198242188 m 1
 679.12109375 602.198242188 l 1
 679.12109375 54.9453125 l 1
 131.868164062 54.9453125 l 1
 131.868164062 602.198242188 l 1
131.868164062 328.571289062 m 1
 679.12109375 328.571289062 l 1025
EndSplineSet
Fore
SplineSet
132 622 m 2
 679 622 l 2
 691 622 699 611 699 602 c 2
 699 349 l 1
 699 329 l 1
 699 309 l 1
 699 55 l 2
 699 43 688 35 679 35 c 2
 132 35 l 2
 120 35 112 46 112 55 c 2
 112 309 l 1
 112 329 l 1
 112 349 l 1
 112 602 l 2
 112 614 123 622 132 622 c 2
659 349 m 1
 659 582 l 1
 152 582 l 1
 152 349 l 1
 659 349 l 1
659 309 m 1
 152 309 l 1
 152 75 l 1
 659 75 l 1
 659 309 l 1
EndSplineSet
Substitution2: "Single Substitution lookup 82 subtable" ny.cvc.3
Substitution2: "Single Substitution lookup 71 subtable" ny.cvc.1
Substitution2: "Single Substitution lookup 64 subtable" ny.ccv.2
Substitution2: "Single Substitution lookup 60 subtable" ny.cvc.3
Substitution2: "Single Substitution lookup 56 subtable" ny.cvc.1
Substitution2: "Single Substitution lookup 54 subtable" ny.ccv.1
Substitution2: "Single Substitution lookup 31 subtable" ny.ccv.2
Substitution2: "Single Substitution lookup 18 subtable" ny.ccv.2
EndChar

StartChar: dy
Encoding: 1 60257 1
Width: 810
VWidth: 2197
Flags: W
HStem: 35 40<152 699> 309 40<152 699> 582 40<152 699>
VStem: 112 40<75 309 349 582>
CounterMasks: 1 e0
AnchorPoint: "Above" 405 0 basechar 0
LayerCount: 2
Back
SplineSet
679.12109375 54.9453125 m 5
 131.868164062 54.9453125 l 5
 131.868164062 602.198242188 l 5
 679.12109375 602.198242188 l 1029
131.868164062 328.571289062 m 5
 679.12109375 328.571289062 l 1029
EndSplineSet
Fore
SplineSet
699 55 m 1
 699 35 l 1
 679 35 l 1
 132 35 l 2
 120 35 112 46 112 55 c 2
 112 309 l 1
 112 329 l 1
 112 349 l 1
 112 602 l 2
 112 614 123 622 132 622 c 2
 679 622 l 1
 699 622 l 1
 699 602 l 1
 699 582 l 1
 679 582 l 1
 152 582 l 1
 152 349 l 1
 679 349 l 1
 699 349 l 1
 699 329 l 1
 699 309 l 1
 679 309 l 1
 152 309 l 1
 152 75 l 1
 679 75 l 1
 699 75 l 1
 699 55 l 1
EndSplineSet
Substitution2: "Single Substitution lookup 82 subtable" dy.cvc.3
Substitution2: "Single Substitution lookup 71 subtable" dy.cvc.1
Substitution2: "Single Substitution lookup 64 subtable" dy.ccv.2
Substitution2: "Single Substitution lookup 60 subtable" dy.cvc.3
Substitution2: "Single Substitution lookup 56 subtable" dy.cvc.1
Substitution2: "Single Substitution lookup 54 subtable" dy.ccv.1
Substitution2: "Single Substitution lookup 36 subtable" dy.ccv.2
Substitution2: "Single Substitution lookup 23 subtable" dy.ccv.2
EndChar

StartChar: ty
Encoding: 2 60258 2
Width: 810
VWidth: 2197
Flags: W
HStem: 35 40<112 659> 309 40<112 659> 582 40<112 659>
VStem: 659 40<75 309 349 582>
CounterMasks: 1 e0
AnchorPoint: "Above" 405 0 basechar 0
LayerCount: 2
Back
SplineSet
131.868164062 602.198242188 m 5
 679.12109375 602.198242188 l 5
 679.12109375 54.9453125 l 5
 131.868164062 54.9453125 l 1029
131.868164062 328.571289062 m 5
 679.12109375 328.571289062 l 1029
EndSplineSet
Fore
SplineSet
112 329 m 1
 112 349 l 1
 132 349 l 1
 659 349 l 1
 659 582 l 1
 132 582 l 1
 112 582 l 1
 112 602 l 1
 112 622 l 1
 132 622 l 1
 679 622 l 2
 691 622 699 611 699 602 c 2
 699 349 l 1
 699 329 l 1
 699 309 l 1
 699 55 l 2
 699 43 688 35 679 35 c 2
 132 35 l 1
 112 35 l 1
 112 55 l 1
 112 75 l 1
 132 75 l 1
 659 75 l 1
 659 309 l 1
 132 309 l 1
 112 309 l 1
 112 329 l 1
EndSplineSet
Substitution2: "Single Substitution lookup 82 subtable" ty.cvc.3
Substitution2: "Single Substitution lookup 71 subtable" ty.cvc.1
Substitution2: "Single Substitution lookup 64 subtable" ty.ccv.2
Substitution2: "Single Substitution lookup 60 subtable" ty.cvc.3
Substitution2: "Single Substitution lookup 56 subtable" ty.cvc.1
Substitution2: "Single Substitution lookup 54 subtable" ty.ccv.1
Substitution2: "Single Substitution lookup 28 subtable" ty.ccv.2
Substitution2: "Single Substitution lookup 15 subtable" ty.ccv.2
EndChar

StartChar: zy
Encoding: 3 60259 3
Width: 810
VWidth: 2197
Flags: W
HStem: 35 40<207 522.138> 309 40<207 547>
VStem: 167 40<75 309 349 622>
AnchorPoint: "Above" 405 0 basechar 0
LayerCount: 2
Back
SplineSet
187.912109375 328.571289062 m 5
 545.0546875 328.571289062 l 1029
186.813476562 602.198242188 m 5
 186.813476562 55.494140625 l 5
 539.560546875 55.494140625 l 5
 556.549804688 290.936523438 569.8125 432.146484375 701.098632812 602.198242188 c 1029
EndSplineSet
Fore
SplineSet
187 622 m 1
 207 622 l 1
 207 602 l 1
 207 349 l 1
 545 349 l 1
 556 349 l 1
 578 441 615 523 685 614 c 2
 697 630 l 1
 713 618 l 1
 729 606 l 1
 717 590 l 2
 589 424 577 290 560 54 c 0
 559 45 551 35 540 35 c 2
 187 35 l 2
 178 35 167 43 167 55 c 2
 167 602 l 1
 167 622 l 1
 187 622 l 1
207 309 m 1
 207 75 l 1
 521 75 l 1
 527 163 534 239 547 309 c 1
 545 309 l 1
 207 309 l 1
EndSplineSet
Substitution2: "Single Substitution lookup 82 subtable" zy.cvc.3
Substitution2: "Single Substitution lookup 71 subtable" zy.cvc.1
Substitution2: "Single Substitution lookup 64 subtable" zy.ccv.2
Substitution2: "Single Substitution lookup 60 subtable" zy.cvc.3
Substitution2: "Single Substitution lookup 56 subtable" zy.cvc.1
Substitution2: "Single Substitution lookup 54 subtable" zy.ccv.1
Substitution2: "Single Substitution lookup 46 subtable" zy.ccv.2
EndChar

StartChar: sy
Encoding: 4 60260 4
Width: 810
VWidth: 2197
Flags: W
HStem: 309 40<309 659> 582 40<348.727 659>
VStem: 659 40<35 309 349 582>
AnchorPoint: "Above" 405 0 basechar 0
LayerCount: 2
Back
SplineSet
131.868164062 54.9453125 m 5
 229.8125 177.999023438 291.185546875 253.153320312 332.966796875 602.198242188 c 5
 679.12109375 602.198242188 l 5
 679.12109375 54.9453125 l 1029
308.791015625 328.571289062 m 5
 679.12109375 328.571289062 l 1029
EndSplineSet
Fore
SplineSet
119 39 m 1
 104 52 l 1
 116 67 l 2
 213 189 271 258 313 605 c 0
 314 615 324 622 333 622 c 2
 679 622 l 2
 691 622 699 611 699 602 c 2
 699 349 l 1
 699 329 l 1
 699 309 l 1
 699 55 l 1
 699 35 l 1
 679 35 l 1
 659 35 l 1
 659 55 l 1
 659 309 l 1
 309 309 l 1
 297 309 l 1
 259 184 211 121 148 42 c 2
 135 27 l 1
 119 39 l 1
309 349 m 1
 659 349 l 1
 659 582 l 1
 351 582 l 1
 339 486 325 411 309 349 c 1
EndSplineSet
Substitution2: "Single Substitution lookup 82 subtable" sy.cvc.3
Substitution2: "Single Substitution lookup 71 subtable" sy.cvc.1
Substitution2: "Single Substitution lookup 64 subtable" sy.ccv.2
Substitution2: "Single Substitution lookup 60 subtable" sy.cvc.3
Substitution2: "Single Substitution lookup 56 subtable" sy.cvc.1
Substitution2: "Single Substitution lookup 54 subtable" sy.ccv.1
Substitution2: "Single Substitution lookup 41 subtable" sy.ccv.2
EndChar

StartChar: gy
Encoding: 5 60261 5
Width: 810
VWidth: 2197
Flags: W
AnchorPoint: "Above" 405 0 basechar 0
LayerCount: 2
Back
SplineSet
679.12109375 602.198242188 m 5
 132.966796875 339.560546875 l 5
 679.12109375 54.9453125 l 1029
EndSplineSet
Fore
SplineSet
697 611 m 1
 706 593 l 1
 688 584 l 1
 178 339 l 1
 688 73 l 1
 706 63 l 1
 697 46 l 1
 688 28 l 1
 670 37 l 1
 124 322 l 2
 122 323 118 327 116 330 c 0
 110 340 114 353 124 358 c 2
 670 620 l 1
 688 629 l 1
 697 611 l 1
EndSplineSet
Substitution2: "Single Substitution lookup 82 subtable" gy.cvc.3
Substitution2: "Single Substitution lookup 71 subtable" gy.cvc.1
Substitution2: "Single Substitution lookup 64 subtable" gy.ccv.2
Substitution2: "Single Substitution lookup 60 subtable" gy.cvc.3
Substitution2: "Single Substitution lookup 56 subtable" gy.cvc.1
Substitution2: "Single Substitution lookup 54 subtable" gy.ccv.1
Substitution2: "Single Substitution lookup 37 subtable" gy.ccv.2
Substitution2: "Single Substitution lookup 24 subtable" gy.ccv.2
EndChar

StartChar: jy
Encoding: 6 60262 6
Width: 810
VWidth: 2197
Flags: W
HStem: 309 40<112 356.27 450.893 699> 580.821 38.3574<650.433 693.064>
VStem: 385 40<36 308.68>
AnchorPoint: "Above" 405 0 basechar 0
LayerCount: 2
Back
SplineSet
132 329 m 1
 679 329 l 1025
405 252 m 1
 405 56 l 1025
132 602 m 1
 189 578 402 405 405 252 c 1
 402 399 608 579 679 600 c 1025
EndSplineSet
Fore
SplineSet
112 329 m 1
 112 349 l 1
 132 349 l 1
 356.269875062 349 l 1
 297.022439253 460.838732698 163.070548435 567.217107893 124.238859999 583.567292497 c 2
 105.806152496 591.328432498 l 1
 113.567292497 609.761140001 l 1
 121.328432498 628.193847504 l 1
 139.761140001 620.432707503 l 2
 192.196025848 598.354860831 341.517018845 480.697020327 401.037103575 349 c 1
 406.486979314 349 l 1
 462.774021757 479.776877763 607.158573847 599.607614643 673.327431163 619.178685116 c 2
 692.506116279 624.851253953 l 1
 698.178685116 605.672568837 l 1
 703.851253953 586.493883721 l 1
 684.672568837 580.821314884 l 2
 637.673493669 566.920179975 506.760950951 459.053945225 450.893268817 349 c 1
 679 349 l 1
 699 349 l 1
 699 329 l 1
 699 309 l 1
 679 309 l 1
 434.15326913 309 l 1
 431.983973307 302.289595773 430.170687876 295.612968084 428.750265119 288.991394244 c 0
 426.487850324 278.444712593 425.213707997 268.145625765 425 258.172742653 c 2
 425 252 l 1
 425 56 l 1
 425 36 l 1
 405 36 l 1
 385 36 l 1
 385 56 l 1
 385 251.797209193 l 2
 384.74950428 263.756615187 383.03822183 276.060982822 380.003849708 288.602409003 c 0
 378.366020072 295.371756548 376.337191339 302.177335835 373.955813231 309 c 1
 132 309 l 1
 112 309 l 1
 112 329 l 1
EndSplineSet
Substitution2: "Single Substitution lookup 82 subtable" jy.cvc.3
Substitution2: "Single Substitution lookup 71 subtable" jy.cvc.1
Substitution2: "Single Substitution lookup 64 subtable" jy.ccv.2
Substitution2: "Single Substitution lookup 60 subtable" jy.cvc.3
Substitution2: "Single Substitution lookup 56 subtable" jy.cvc.1
Substitution2: "Single Substitution lookup 54 subtable" jy.ccv.1
Substitution2: "Single Substitution lookup 44 subtable" jy.ccv.2
EndChar

StartChar: xy
Encoding: 7 60263 7
Width: 810
VWidth: 2197
Flags: W
HStem: 36 39<118.158 166.537>
VStem: 385 40<305.194 622>
AnchorPoint: "Above" 405 0 basechar 0
LayerCount: 2
Back
SplineSet
405.296875 399.704101562 m 5
 405.296875 601.901367188 l 1029
678.922851562 57.9453125 m 5
 594.637695312 89.1142578125 409.745117188 200.96875 405.296875 399.704101562 c 5
 409.075195312 208.76953125 234.079101562 87.8984375 133.868164062 60.1435546875 c 1029
EndSplineSet
Fore
SplineSet
698 51 m 1
 691 32 l 1
 672 39 l 2
 600 66 461 147 407 288 c 1
 358 149 225 65 139 41 c 2
 120 36 l 1
 115 55 l 1
 109 75 l 1
 129 79 l 2
 222 105 381 217 385 388 c 2
 385 400 l 1
 385 602 l 1
 385 622 l 1
 405 622 l 1
 425 622 l 1
 425 602 l 1
 425 400 l 1
 429 215 605 107 686 77 c 2
 705 70 l 1
 698 51 l 1
EndSplineSet
Substitution2: "Single Substitution lookup 82 subtable" xy.cvc.3
Substitution2: "Single Substitution lookup 71 subtable" xy.cvc.1
Substitution2: "Single Substitution lookup 64 subtable" xy.ccv.2
Substitution2: "Single Substitution lookup 60 subtable" xy.cvc.3
Substitution2: "Single Substitution lookup 56 subtable" xy.cvc.1
Substitution2: "Single Substitution lookup 54 subtable" xy.ccv.1
EndChar

StartChar: iy
Encoding: 8 60264 8
Width: 810
VWidth: 2197
Flags: W
HStem: 35 40<152 700>
VStem: 112 40<75 618>
AnchorPoint: "Above" 405 0 basechar 0
LayerCount: 2
Back
SplineSet
131.868164062 597.801757812 m 5
 131.868164062 54.9453125 l 5
 680.219726562 55.494140625 l 1029
EndSplineSet
Fore
SplineSet
132 618 m 1
 152 618 l 1
 152 598 l 1
 152 75 l 1
 680 75 l 1
 700 76 l 1
 700 56 l 1
 700 36 l 1
 680 35 l 1
 132 35 l 2
 123 35 112 43 112 55 c 2
 112 598 l 1
 112 618 l 1
 132 618 l 1
EndSplineSet
Substitution2: "Single Substitution lookup 82 subtable" iy.cvc.3
Substitution2: "Single Substitution lookup 71 subtable" iy.cvc.1
Substitution2: "Single Substitution lookup 64 subtable" iy.ccv.2
Substitution2: "Single Substitution lookup 60 subtable" iy.cvc.3
Substitution2: "Single Substitution lookup 56 subtable" iy.cvc.1
Substitution2: "Single Substitution lookup 54 subtable" iy.ccv.1
EndChar

StartChar: ry
Encoding: 9 60265 9
Width: 810
VWidth: 2197
Flags: W
AnchorPoint: "Above" 405 0 basechar 0
LayerCount: 2
Back
SplineSet
131.868164062 54.9453125 m 5
 679.12109375 602.198242188 l 1053
131.868164062 602.198242188 m 5
 679.12109375 54.9453125 l 1029
EndSplineSet
Fore
SplineSet
118 616 m 1
 132 630 l 1
 146 616 l 1
 405 357 l 1
 665 616 l 1
 679 630 l 1
 693 616 l 1
 707 602 l 1
 693 588 l 1
 434 329 l 1
 693 69 l 1
 707 55 l 1
 693 41 l 1
 679 27 l 1
 665 41 l 1
 405 300 l 1
 146 41 l 1
 132 27 l 1
 118 41 l 1
 104 55 l 1
 118 69 l 1
 377 329 l 1
 118 588 l 1
 104 602 l 1
 118 616 l 1
EndSplineSet
Substitution2: "Single Substitution lookup 82 subtable" ry.cvc.3
Substitution2: "Single Substitution lookup 71 subtable" ry.cvc.1
Substitution2: "Single Substitution lookup 64 subtable" ry.ccv.2
Substitution2: "Single Substitution lookup 60 subtable" ry.cvc.3
Substitution2: "Single Substitution lookup 56 subtable" ry.cvc.1
Substitution2: "Single Substitution lookup 54 subtable" ry.ccv.1
Substitution2: "Single Substitution lookup 52 subtable" ry.ccv.2
Substitution2: "Single Substitution lookup 50 subtable" ry.ccv.2
Substitution2: "Single Substitution lookup 48 subtable" ry.ccv.2
Substitution2: "Single Substitution lookup 45 subtable" ry.ccv.2
Substitution2: "Single Substitution lookup 43 subtable" ry.ccv.2
Substitution2: "Single Substitution lookup 40 subtable" ry.ccv.2
Substitution2: "Single Substitution lookup 33 subtable" ry.ccv.2
Substitution2: "Single Substitution lookup 20 subtable" ry.ccv.2
Substitution2: "Single Substitution lookup 12 subtable" ry.ccv.2
Substitution2: "Single Substitution lookup 10 subtable" ry.ccv.2
Substitution2: "Single Substitution lookup 8 subtable" ry.ccv.2
Substitution2: "Single Substitution lookup 6 subtable" ry.ccv.2
EndChar

StartChar: my
Encoding: 16 60272 16
Width: 810
VWidth: 2197
Flags: W
HStem: 35 40<152 659> 582 40<152 659>
VStem: 112 40<75 582> 659 40<75 582>
AnchorPoint: "Above" 405 0 basechar 0
LayerCount: 2
Back
SplineSet
131.868164062 602.198242188 m 5
 679.12109375 602.198242188 l 5
 679.12109375 54.9453125 l 5
 131.868164062 54.9453125 l 5
 131.868164062 602.198242188 l 5
EndSplineSet
Fore
SplineSet
132 622 m 2
 679 622 l 2
 691 622 699 611 699 602 c 2
 699 55 l 2
 699 43 688 35 679 35 c 2
 132 35 l 2
 120 35 112 46 112 55 c 2
 112 602 l 2
 112 614 123 622 132 622 c 2
152 582 m 1
 152 75 l 1
 659 75 l 1
 659 582 l 1
 152 582 l 1
EndSplineSet
Substitution2: "Single Substitution lookup 82 subtable" my.cvc.3
Substitution2: "Single Substitution lookup 71 subtable" my.cvc.1
Substitution2: "Single Substitution lookup 64 subtable" my.ccv.2
Substitution2: "Single Substitution lookup 60 subtable" my.cvc.3
Substitution2: "Single Substitution lookup 56 subtable" my.cvc.1
Substitution2: "Single Substitution lookup 54 subtable" my.ccv.1
Substitution2: "Single Substitution lookup 38 subtable" my.ccv.2
Substitution2: "Single Substitution lookup 30 subtable" my.ccv.2
Substitution2: "Single Substitution lookup 25 subtable" my.ccv.2
Substitution2: "Single Substitution lookup 17 subtable" my.ccv.2
EndChar

StartChar: by
Encoding: 17 60273 17
Width: 810
VWidth: 2197
Flags: W
HStem: 35 40<152 699> 582 40<152 699>
VStem: 112 40<75 582>
AnchorPoint: "Above" 405 0 basechar 0
LayerCount: 2
Back
SplineSet
679.12109375 54.9453125 m 5
 131.868164062 54.9453125 l 5
 131.868164062 602.198242188 l 5
 679.12109375 602.198242188 l 1029
EndSplineSet
Fore
SplineSet
699 55 m 1
 699 35 l 1
 679 35 l 1
 132 35 l 2
 120 35 112 46 112 55 c 2
 112 602 l 2
 112 614 123 622 132 622 c 2
 679 622 l 1
 699 622 l 1
 699 602 l 1
 699 582 l 1
 679 582 l 1
 152 582 l 1
 152 75 l 1
 679 75 l 1
 699 75 l 1
 699 55 l 1
EndSplineSet
Substitution2: "Single Substitution lookup 82 subtable" by.cvc.3
Substitution2: "Single Substitution lookup 71 subtable" by.cvc.1
Substitution2: "Single Substitution lookup 64 subtable" by.ccv.2
Substitution2: "Single Substitution lookup 60 subtable" by.cvc.3
Substitution2: "Single Substitution lookup 56 subtable" by.cvc.1
Substitution2: "Single Substitution lookup 54 subtable" by.ccv.1
Substitution2: "Single Substitution lookup 34 subtable" by.ccv.2
Substitution2: "Single Substitution lookup 21 subtable" by.ccv.2
EndChar

StartChar: py
Encoding: 18 60274 18
Width: 810
VWidth: 2197
Flags: W
HStem: 35 40<112 659> 582 40<112 659>
VStem: 659 40<75 582>
AnchorPoint: "Above" 405 0 basechar 0
LayerCount: 2
Back
SplineSet
131.868164062 602.198242188 m 5
 679.12109375 602.198242188 l 5
 679.12109375 54.9453125 l 5
 131.868164062 54.9453125 l 1029
EndSplineSet
Fore
SplineSet
112 602 m 1
 112 622 l 1
 132 622 l 1
 679 622 l 2
 691 622 699 611 699 602 c 2
 699 55 l 2
 699 43 688 35 679 35 c 2
 132 35 l 1
 112 35 l 1
 112 55 l 1
 112 75 l 1
 132 75 l 1
 659 75 l 1
 659 582 l 1
 132 582 l 1
 112 582 l 1
 112 602 l 1
EndSplineSet
Substitution2: "Single Substitution lookup 82 subtable" py.cvc.3
Substitution2: "Single Substitution lookup 71 subtable" py.cvc.1
Substitution2: "Single Substitution lookup 64 subtable" py.ccv.2
Substitution2: "Single Substitution lookup 60 subtable" py.cvc.3
Substitution2: "Single Substitution lookup 56 subtable" py.cvc.1
Substitution2: "Single Substitution lookup 54 subtable" py.ccv.1
Substitution2: "Single Substitution lookup 26 subtable" py.ccv.2
Substitution2: "Single Substitution lookup 13 subtable" py.ccv.2
EndChar

StartChar: vy
Encoding: 19 60275 19
Width: 810
VWidth: 2197
Flags: W
HStem: 35 40<152 394.461>
VStem: 112 40<75 622>
AnchorPoint: "Above" 405 0 basechar 0
LayerCount: 2
Back
SplineSet
131.868164062 602.198242188 m 5
 131.868164062 55.494140625 l 5
 405.494140625 55.494140625 l 5
 480.248046875 297.5859375 543.504882812 431.475585938 679.12109375 602.198242188 c 1029
EndSplineSet
Fore
SplineSet
132 622 m 1
 152 622 l 1
 152 602 l 1
 152 75 l 1
 391 75 l 1
 465 311 528 446 663 615 c 2
 676 630 l 1
 692 618 l 1
 707 605 l 1
 695 590 l 2
 561 421 499 291 425 50 c 0
 423 42 414 35 405 35 c 2
 132 35 l 2
 123 35 112 43 112 55 c 2
 112 602 l 1
 112 622 l 1
 132 622 l 1
EndSplineSet
Substitution2: "Single Substitution lookup 82 subtable" vy.cvc.3
Substitution2: "Single Substitution lookup 71 subtable" vy.cvc.1
Substitution2: "Single Substitution lookup 64 subtable" vy.ccv.2
Substitution2: "Single Substitution lookup 60 subtable" vy.cvc.3
Substitution2: "Single Substitution lookup 56 subtable" vy.cvc.1
Substitution2: "Single Substitution lookup 54 subtable" vy.ccv.1
Substitution2: "Single Substitution lookup 35 subtable" vy.ccv.2
Substitution2: "Single Substitution lookup 22 subtable" vy.ccv.2
EndChar

StartChar: fy
Encoding: 20 60276 20
Width: 810
VWidth: 2197
Flags: W
HStem: 582 40<349.015 659>
VStem: 659 40<35 582>
AnchorPoint: "Above" 405 0 basechar 0
LayerCount: 2
Back
SplineSet
131.868164062 54.9453125 m 5
 229.8125 177.999023438 291.185546875 253.153320312 332.966796875 602.198242188 c 5
 679.12109375 602.198242188 l 5
 679.12109375 54.9453125 l 1029
EndSplineSet
Fore
SplineSet
119 39 m 1
 104 52 l 1
 116 67 l 2
 213 189 271 258 313 605 c 0
 314 615 324 622 333 622 c 2
 679 622 l 2
 691 622 699 611 699 602 c 2
 699 55 l 1
 699 35 l 1
 679 35 l 1
 659 35 l 1
 659 55 l 1
 659 582 l 1
 351 582 l 1
 309 247 245 164 148 42 c 2
 135 27 l 1
 119 39 l 1
EndSplineSet
Substitution2: "Single Substitution lookup 82 subtable" fy.cvc.3
Substitution2: "Single Substitution lookup 71 subtable" fy.cvc.1
Substitution2: "Single Substitution lookup 64 subtable" fy.ccv.2
Substitution2: "Single Substitution lookup 60 subtable" fy.cvc.3
Substitution2: "Single Substitution lookup 56 subtable" fy.cvc.1
Substitution2: "Single Substitution lookup 54 subtable" fy.ccv.1
Substitution2: "Single Substitution lookup 27 subtable" fy.ccv.2
Substitution2: "Single Substitution lookup 14 subtable" fy.ccv.2
EndChar

StartChar: ky
Encoding: 21 60277 21
Width: 810
VWidth: 2197
Flags: W
AnchorPoint: "Above" 405 0 basechar 0
LayerCount: 2
Back
SplineSet
131.868164062 605.494140625 m 5
 682.41796875 339.560546875 l 5
 131.868164062 54.9453125 l 1029
EndSplineSet
Fore
SplineSet
114 614 m 1
 123 632 l 1
 141 624 l 1
 691 358 l 2
 701 353 706 339 700 329 c 0
 698 326 694 323 692 322 c 2
 141 37 l 1
 141 36 142 37 141 37 c 1
 123 28 l 1
 114 46 l 1
 105 64 l 1
 123 73 l 1
 638 339 l 1
 123 587 l 1
 105 596 l 1
 114 614 l 1
EndSplineSet
Substitution2: "Single Substitution lookup 82 subtable" ky.cvc.3
Substitution2: "Single Substitution lookup 71 subtable" ky.cvc.1
Substitution2: "Single Substitution lookup 64 subtable" ky.ccv.2
Substitution2: "Single Substitution lookup 60 subtable" ky.cvc.3
Substitution2: "Single Substitution lookup 56 subtable" ky.cvc.1
Substitution2: "Single Substitution lookup 54 subtable" ky.ccv.1
Substitution2: "Single Substitution lookup 29 subtable" ky.ccv.2
Substitution2: "Single Substitution lookup 16 subtable" ky.ccv.2
EndChar

StartChar: cy
Encoding: 22 60278 22
Width: 810
VWidth: 2197
Flags: W
HStem: 35.9734 38.0532<651.232 695.217> 309 40<112 353.866 453.023 699>
VStem: 385 40<349.428 622>
AnchorPoint: "Above" 405 0 basechar 0
LayerCount: 2
Back
SplineSet
132 329 m 5
 679 329 l 1029
405 416 m 5
 405 602 l 1029
132 55 m 5
 189 81 402 253 405 416 c 5
 402 259 608 78 679 55 c 1029
EndSplineSet
Fore
SplineSet
112 329 m 1
 112 349 l 1
 132 349 l 1
 371.715353896 349 l 1
 374.934202931 357.911264333 377.625677393 366.835473598 379.716040624 375.738599425 c 0
 382.921951437 389.392985864 384.741082416 402.90927597 385 416.189535918 c 2
 385 602 l 1
 385 622 l 1
 405 622 l 1
 425 622 l 1
 425 602 l 1
 425 416 l 1
 425 409.380400561 l 2
 425.215688757 398.569806589 426.509453039 387.509395976 428.792774043 376.270181656 c 0
 430.629965446 367.226955634 433.117560495 358.12248906 436.177109928 349 c 1
 679 349 l 1
 699 349 l 1
 699 329 l 1
 699 309 l 1
 679 309 l 1
 453.022851942 309 l 1
 510.0232951 195.577253004 638.326204374 89.1992387599 685.163540217 74.02658067 c 2
 704.190120887 67.863040453 l 1
 698.02658067 48.836459783 l 1
 691.863040453 29.8098791129 l 1
 672.836459783 35.97341933 l 2
 608.095969974 56.9456906766 466.661095437 175.062420285 408.655866126 309 c 1
 398.615813173 309 l 1
 337.178005734 174.53548528 191.194352743 60.0185396965 140.300103598 36.8036190341 c 2
 122.103722633 28.5035154357 l 1
 113.803619034 46.6998964015 l 1
 105.503515436 64.8962773674 l 1
 123.699896402 73.1963809659 l 2
 162.628475991 90.9532769189 293.509414676 194.547997303 353.866091481 309 c 1
 132 309 l 1
 112 309 l 1
 112 329 l 1
EndSplineSet
Substitution2: "Single Substitution lookup 82 subtable" cy.cvc.3
Substitution2: "Single Substitution lookup 71 subtable" cy.cvc.1
Substitution2: "Single Substitution lookup 64 subtable" cy.ccv.2
Substitution2: "Single Substitution lookup 60 subtable" cy.cvc.3
Substitution2: "Single Substitution lookup 56 subtable" cy.cvc.1
Substitution2: "Single Substitution lookup 54 subtable" cy.ccv.1
Substitution2: "Single Substitution lookup 39 subtable" cy.ccv.2
EndChar

StartChar: yhy
Encoding: 23 60279 23
Width: 810
VWidth: 2197
Flags: W
VStem: 112 40<103 619> 662 40<35 553>
AnchorPoint: "Above" 405 0 basechar 0
LayerCount: 2
Back
SplineSet
131.868164062 598.901367188 m 29
 131.868164062 54.9453125 l 5
 682.41796875 601.098632812 l 29
 682.41796875 54.9453125 l 1029
EndSplineSet
Fore
SplineSet
132 619 m 1
 152 619 l 1
 152 599 l 1
 152 103 l 1
 668 615 l 2
 676 623 691 623 698 614 c 0
 701 610 702 606 702 601 c 2
 702 55 l 1
 702 35 l 1
 682 35 l 1
 662 35 l 1
 662 55 l 1
 662 553 l 1
 146 41 l 2
 143 38 138 35 133 35 c 0
 122 34 112 44 112 55 c 2
 112 599 l 1
 112 619 l 1
 132 619 l 1
EndSplineSet
Substitution2: "Single Substitution lookup 82 subtable" yhy.cvc.3
Substitution2: "Single Substitution lookup 71 subtable" yhy.cvc.1
Substitution2: "Single Substitution lookup 64 subtable" yhy.ccv.2
Substitution2: "Single Substitution lookup 60 subtable" yhy.cvc.3
Substitution2: "Single Substitution lookup 56 subtable" yhy.cvc.1
Substitution2: "Single Substitution lookup 54 subtable" yhy.ccv.1
EndChar

StartChar: uy
Encoding: 24 60280 24
Width: 810
VWidth: 2197
Flags: W
HStem: 35 40<112 662>
VStem: 662 40<75 624>
AnchorPoint: "Above" 405 0 basechar 0
LayerCount: 2
Back
SplineSet
131.868164062 55.494140625 m 5
 682.41796875 55.494140625 l 5
 682.41796875 604.395507812 l 1029
EndSplineSet
Fore
SplineSet
112 55 m 1
 112 75 l 1
 132 75 l 1
 662 75 l 1
 662 604 l 1
 662 624 l 1
 682 624 l 1
 702 624 l 1
 702 604 l 1
 702 55 l 2
 702 46 694 35 682 35 c 2
 132 35 l 1
 112 35 l 1
 112 55 l 1
EndSplineSet
Substitution2: "Single Substitution lookup 82 subtable" uy.cvc.3
Substitution2: "Single Substitution lookup 71 subtable" uy.cvc.1
Substitution2: "Single Substitution lookup 64 subtable" uy.ccv.2
Substitution2: "Single Substitution lookup 60 subtable" uy.cvc.3
Substitution2: "Single Substitution lookup 56 subtable" uy.cvc.1
Substitution2: "Single Substitution lookup 54 subtable" uy.ccv.1
EndChar

StartChar: ly
Encoding: 25 60281 25
Width: 810
VWidth: 2197
Flags: W
HStem: 35 40<152 699> 309 40<152 659> 582 40<112 659>
VStem: 112 40<75 309> 659 40<349 582>
CounterMasks: 1 e0
AnchorPoint: "Above" 405 0 basechar 0
LayerCount: 2
Back
SplineSet
131.868164062 602.198242188 m 5
 679.12109375 602.198242188 l 5
 679.12109375 328.571289062 l 5
 131.868164062 328.571289062 l 5
 131.868164062 54.9453125 l 5
 679.12109375 54.9453125 l 1029
EndSplineSet
Fore
SplineSet
112 602 m 1
 112 622 l 1
 132 622 l 1
 679 622 l 2
 691 622 699 611 699 602 c 2
 699 329 l 2
 699 317 688 309 679 309 c 2
 152 309 l 1
 152 75 l 1
 679 75 l 1
 699 75 l 1
 699 55 l 1
 699 35 l 1
 679 35 l 1
 132 35 l 2
 123 35 112 43 112 55 c 2
 112 329 l 2
 112 338 120 349 132 349 c 2
 659 349 l 1
 659 582 l 1
 132 582 l 1
 112 582 l 1
 112 602 l 1
EndSplineSet
Substitution2: "Single Substitution lookup 82 subtable" ly.cvc.3
Substitution2: "Single Substitution lookup 71 subtable" ly.cvc.1
Substitution2: "Single Substitution lookup 64 subtable" ly.ccv.2
Substitution2: "Single Substitution lookup 60 subtable" ly.cvc.3
Substitution2: "Single Substitution lookup 56 subtable" ly.cvc.1
Substitution2: "Single Substitution lookup 54 subtable" ly.ccv.1
Substitution2: "Single Substitution lookup 51 subtable" ly.ccv.2
Substitution2: "Single Substitution lookup 49 subtable" ly.ccv.2
Substitution2: "Single Substitution lookup 47 subtable" ly.ccv.2
Substitution2: "Single Substitution lookup 42 subtable" ly.ccv.2
Substitution2: "Single Substitution lookup 32 subtable" ly.ccv.2
Substitution2: "Single Substitution lookup 19 subtable" ly.ccv.2
Substitution2: "Single Substitution lookup 11 subtable" ly.ccv.2
Substitution2: "Single Substitution lookup 9 subtable" ly.ccv.2
Substitution2: "Single Substitution lookup 7 subtable" ly.ccv.2
Substitution2: "Single Substitution lookup 5 subtable" ly.ccv.2
EndChar

StartChar: denpabu
Encoding: 31 60287 31
Width: 810
VWidth: 0
Flags: W
HStem: 34 40<308.681 501.319> 582 40<308.681 501.319>
VStem: 112 40<231.55 424.45> 658 40<231.55 424.45>
AnchorPoint: "Above" 405 0 basechar 0
LayerCount: 2
Back
SplineSet
132 328 m 4
 132 479 254 602 405 602 c 4
 556 602 678 479 678 328 c 4
 678 177 556 54 405 54 c 4
 254 54 132 177 132 328 c 4
EndSplineSet
Fore
SplineSet
152 328 m 0
 152 188 265 74 405 74 c 0
 545 74 658 188 658 328 c 0
 658 468 545 582 405 582 c 0
 265 582 152 468 152 328 c 0
112 328 m 0
 112 490 243 622 405 622 c 0
 567 622 698 490 698 328 c 0
 698 166 567 34 405 34 c 0
 243 34 112 166 112 328 c 0
EndSplineSet
Substitution2: "Single Substitution lookup 77 subtable" denpabu.cvc.1
Substitution2: "Single Substitution lookup 75 subtable" denpabu.cvc.3
Substitution2: "Single Substitution lookup 66 subtable" denpabu.ccv.1
EndChar

StartChar: ebu.cv
Encoding: 42 -1 32
Width: 0
VWidth: 0
Flags: W
HStem: -114 40<152 699>
VStem: 112 40<-363 -114>
AnchorPoint: "Above" 405 0 mark 0
LayerCount: 2
Back
SplineSet
679 -94 m 29
 132 -94 l 29
 132 -343 l 1053
EndSplineSet
Fore
SplineSet
699 -94 m 1
 699 -114 l 1
 679 -114 l 1
 152 -114 l 1
 152 -343 l 1
 152 -363 l 1
 132 -363 l 1
 112 -363 l 1
 112 -343 l 1
 112 -94 l 2
 112 -85 120 -74 132 -74 c 2
 679 -74 l 1
 699 -74 l 1
 699 -94 l 1
EndSplineSet
Substitution2: "Single Substitution lookup 73 subtable" ebu.cvc
Substitution2: "Single Substitution lookup 69 subtable" ebu.ccv
EndChar

StartChar: obu.cv
Encoding: 43 -1 33
Width: 0
VWidth: 0
Flags: W
HStem: -114 40<112 659>
VStem: 659 40<-363 -114>
AnchorPoint: "Above" 405 0 mark 0
LayerCount: 2
Back
SplineSet
132 -94 m 29
 679 -94 l 29
 679 -343 l 1053
EndSplineSet
Fore
SplineSet
112 -94 m 1
 112 -74 l 1
 132 -74 l 1
 679 -74 l 2
 691 -74 699 -85 699 -94 c 2
 699 -343 l 1
 699 -363 l 1
 679 -363 l 1
 659 -363 l 1
 659 -343 l 1
 659 -114 l 1
 132 -114 l 1
 112 -114 l 1
 112 -94 l 1
EndSplineSet
Substitution2: "Single Substitution lookup 73 subtable" obu.cvc
Substitution2: "Single Substitution lookup 69 subtable" obu.ccv
EndChar

StartChar: ibu.cv
Encoding: 44 -1 34
Width: 0
VWidth: 0
Flags: W
HStem: -113 40<152 385 425 699>
VStem: 112 40<-363 -113> 385 40<-266 -113>
AnchorPoint: "Above" 405 0 mark 0
LayerCount: 2
Back
SplineSet
405 -94 m 29
 405 -246 l 1029
679 -93.40625 m 5
 132 -93.40625 l 5
 132 -342.857421875 l 1029
EndSplineSet
Fore
SplineSet
699 -93 m 1
 699 -113 l 1
 679 -113 l 1
 425 -113 l 1
 425 -246 l 1
 425 -266 l 1
 405 -266 l 1
 385 -266 l 1
 385 -246 l 1
 385 -113 l 1
 152 -113 l 1
 152 -343 l 1
 152 -363 l 1
 132 -363 l 1
 112 -363 l 1
 112 -343 l 1
 112 -93 l 2
 112 -84 120 -73 132 -73 c 2
 679 -73 l 1
 699 -73 l 1
 699 -93 l 1
EndSplineSet
Substitution2: "Single Substitution lookup 73 subtable" ibu.cvc
Substitution2: "Single Substitution lookup 69 subtable" ibu.ccv
EndChar

StartChar: ny.cvc.1
Encoding: 32 -1 35
Width: 810
VWidth: 0
Flags: W
HStem: 253 40<215 596> 417 40<215 596> 582 40<215 596>
VStem: 175 40<293 417 457 582> 596 40<293 417 457 582>
CounterMasks: 1 e0
AnchorPoint: "Above" 405 0 basechar 0
LayerCount: 2
Back
SplineSet
194.834960938 602.198242188 m 1
 616.154296875 602.198242188 l 1
 616.154296875 272.747070312 l 1
 194.834960938 272.747070312 l 1
 194.834960938 602.198242188 l 1
194.834960938 437.47265625 m 1
 616.154296875 437.47265625 l 1025
194.834960938 602.198242188 m 1
 616.154296875 602.198242188 l 1
 616.154296875 272.747070312 l 1
 194.834960938 272.747070312 l 1
 194.834960938 602.198242188 l 1
194.834960938 437.47265625 m 1
 616.154296875 437.47265625 l 1025
EndSplineSet
Fore
SplineSet
175 602 m 2
 175 614 186 622 195 622 c 2
 616 622 l 2
 628 622 636 611 636 602 c 2
 636 457 l 1
 636 437 l 1
 636 417 l 1
 636 273 l 2
 636 261 625 253 616 253 c 2
 195 253 l 2
 183 253 175 264 175 273 c 2
 175 417 l 1
 175 437 l 1
 175 457 l 1
 175 602 l 2
596 582 m 1
 215 582 l 1
 215 457 l 1
 596 457 l 1
 596 582 l 1
596 417 m 1
 215 417 l 1
 215 293 l 1
 596 293 l 1
 596 417 l 1
EndSplineSet
EndChar

StartChar: ny.ccv.1
Encoding: 96 -1 36
Width: 810
VWidth: 0
Flags: W
HStem: 35 40<124 325> 309 40<124 325> 582 40<124 325>
VStem: 84 40<75 309 349 582> 325 40<75 309 349 582>
AnchorPoint: "Above" 405 0 basechar 0
LayerCount: 2
Back
SplineSet
345 329 m 5
 105 329 l 1029
104 602 m 5
 345 602 l 5
 345 55 l 5
 104 55 l 5
 104 602 l 5
EndSplineSet
Fore
SplineSet
104 622 m 2
 345 622 l 2
 357.106030284 622 365 610.583923466 365 602 c 2
 365 349 l 1
 365 329 l 1
 365 309 l 1
 365 55 l 2
 365 42.8939697156 353.583923466 35 345 35 c 2
 104 35 l 2
 91.8939697156 35 84 46.4160765339 84 55 c 2
 84 602 l 2
 84 614.106030284 95.4160765339 622 104 622 c 2
124 349 m 1
 325 349 l 1
 325 582 l 1
 124 582 l 1
 124 349 l 1
124 309 m 1
 124 75 l 1
 325 75 l 1
 325 309 l 1
 124 309 l 1
EndSplineSet
EndChar

StartChar: ebu.ccv
Encoding: 106 -1 38
Width: 0
VWidth: 0
Flags: W
HStem: -114 40<124 385 425 728>
VStem: 84 40<-363 -114> 385 40<-266 -114>
AnchorPoint: "Above" 405 0 mark 0
LayerCount: 2
Back
SplineSet
405 -94 m 5
 405 -246 l 1029
708 -94 m 5
 104 -94 l 5
 104 -343 l 1053
EndSplineSet
Fore
SplineSet
728 -94 m 1
 728 -114 l 1
 708 -114 l 1
 425 -114 l 1
 425 -246 l 1
 425 -266 l 1
 405 -266 l 1
 385 -266 l 1
 385 -246 l 1
 385 -114 l 1
 124 -114 l 1
 124 -343 l 1
 124 -363 l 1
 104 -363 l 1
 84 -363 l 1
 84 -343 l 1
 84 -94 l 2
 84 -85 92 -74 104 -74 c 2
 385 -74 l 1
 405 -74 l 1
 425 -74 l 1
 708 -74 l 1
 728 -74 l 1
 728 -94 l 1
EndSplineSet
EndChar

StartChar: dy.cvc.1
Encoding: 33 -1 40
Width: 810
VWidth: 0
Flags: W
HStem: 253 40<215 636> 417 40<215 635> 582 40<215 636>
VStem: 175 40<293 417 457 582>
CounterMasks: 1 e0
AnchorPoint: "Above" 405 0 basechar 0
LayerCount: 2
Back
SplineSet
194.834960938 437.47265625 m 5
 615.0546875 437.47265625 l 1025
616.154296875 272.747070312 m 1
 194.834960938 272.747070312 l 5
 194.834960938 602.198242188 l 5
 616.154296875 602.198242188 l 1025
EndSplineSet
Fore
SplineSet
636 273 m 1
 636 253 l 1
 616 253 l 1
 195 253 l 2
 183 253 175 264 175 273 c 2
 175 417 l 1
 175 437 l 1
 175 457 l 1
 175 602 l 2
 175 614 186 622 195 622 c 2
 616 622 l 1
 636 622 l 1
 636 602 l 1
 636 582 l 1
 616 582 l 1
 215 582 l 1
 215 457 l 1
 615 457 l 1
 635 457 l 1
 635 437 l 1
 635 417 l 1
 615 417 l 1
 215 417 l 1
 215 293 l 1
 616 293 l 1
 636 293 l 1
 636 273 l 1
EndSplineSet
EndChar

StartChar: ty.cvc.1
Encoding: 34 -1 41
Width: 810
VWidth: 0
Flags: W
HStem: 253 40<175 596> 417 40<176 596> 582 40<175 596>
VStem: 596 40<293 417 457 582>
CounterMasks: 1 e0
AnchorPoint: "Above" 405 0 basechar 0
LayerCount: 2
Back
SplineSet
616.154296875 437.47265625 m 5
 195.93359375 437.47265625 l 1025
194.834960938 602.198242188 m 1
 616.154296875 602.198242188 l 5
 616.154296875 272.747070312 l 5
 194.834960938 272.747070312 l 1025
EndSplineSet
Fore
SplineSet
175 602 m 1
 175 622 l 1
 195 622 l 1
 616 622 l 2
 628 622 636 611 636 602 c 2
 636 457 l 1
 636 437 l 1
 636 417 l 1
 636 273 l 2
 636 261 625 253 616 253 c 2
 195 253 l 1
 175 253 l 1
 175 273 l 1
 175 293 l 1
 195 293 l 1
 596 293 l 1
 596 417 l 1
 196 417 l 1
 176 417 l 1
 176 437 l 1
 176 457 l 1
 196 457 l 1
 596 457 l 1
 596 582 l 1
 195 582 l 1
 175 582 l 1
 175 602 l 1
EndSplineSet
EndChar

StartChar: zy.cvc.1
Encoding: 35 -1 42
Width: 810
VWidth: 0
Flags: W
HStem: 253 40<215 546> 417 40<215 553>
VStem: 175 40<293 417 457 622>
AnchorPoint: "Above" 405 0 basechar 0
LayerCount: 2
Back
SplineSet
553.516601562 437.47265625 m 29
 198.131835938 437.47265625 l 1053
194.834960938 602.198242188 m 29
 194.834960938 272.747070312 l 29
 564.725585938 272.747070312 l 21
 569.626158187 338 556.894536431 471.347510701 640.110351562 602.198242188 c 1037
EndSplineSet
Fore
SplineSet
195 622 m 1
 215 622 l 1
 215 602 l 1
 215 457 l 1
 554 457 l 1
 560 457 l 1
 570 506 589 560 623 613 c 2
 634 630 l 1
 651 619 l 1
 668 608 l 1
 657 591 l 2
 577 466 590 340 585 271 c 0
 584 261 575 253 565 253 c 2
 195 253 l 2
 186 253 175 261 175 273 c 2
 175 602 l 1
 175 622 l 1
 195 622 l 1
215 417 m 1
 215 293 l 1
 546 293 l 1
 547 325 546 367 553 417 c 1
 215 417 l 1
EndSplineSet
EndChar

StartChar: sy.cvc.1
Encoding: 36 -1 43
Width: 810
VWidth: 0
Flags: W
HStem: 417 40<258 597> 582 40<266 597>
VStem: 597 40<253 417 457 582>
AnchorPoint: "Above" 405 0 basechar 0
LayerCount: 2
Back
SplineSet
258.428710938 437.47265625 m 25
 613.813476562 437.47265625 l 1049
617.110351562 272.747070312 m 25
 617.110351562 602.198242188 l 25
 247.219726562 602.198242188 l 17
 242.319335938 536.9453125 255.05078125 403.59765625 171.834960938 272.747070312 c 1033
EndSplineSet
Fore
SplineSet
617 253 m 1
 597 253 l 1
 597 273 l 1
 597 417 l 1
 258 417 l 1
 252 417 l 1
 242 368 223 315 189 262 c 2
 178 245 l 1
 161 256 l 1
 144 267 l 1
 155 283 l 2
 235 408 222 535 227 604 c 0
 228 614 237 622 247 622 c 2
 617 622 l 2
 626 622 637 614 637 602 c 2
 637 273 l 1
 637 253 l 1
 617 253 l 1
155 283 m 1
 156 284 155 284 155 283 c 1
597 457 m 1
 597 582 l 1
 266 582 l 1
 265 550 265 507 258 457 c 1
 597 457 l 1
EndSplineSet
EndChar

StartChar: gy.cvc.1
Encoding: 37 -1 44
Width: 810
VWidth: 0
Flags: W
AnchorPoint: "Above" 405 0 basechar 0
LayerCount: 2
Back
SplineSet
618.3515625 604.395507812 m 1
 193.736328125 438.571289062 l 1
 618.3515625 270.549804688 l 1025
EndSplineSet
Fore
SplineSet
637 612 m 1
 644 593 l 1
 626 586 l 1
 248 438 l 1
 626 289 l 1
 644 282 l 1
 637 263 l 1
 630 245 l 1
 611 252 l 1
 186 420 l 2
 182 422 178 425 176 430 c 0
 171 440 175 453 186 457 c 2
 611 623 l 1
 630 630 l 1
 637 612 l 1
EndSplineSet
EndChar

StartChar: jy.cvc.1
Encoding: 38 -1 45
Width: 810
VWidth: 0
Flags: W
HStem: 417 40<175 353.586 450.726 635> 582.897 38.2063<571.225 629.666>
VStem: 385 40<253 416.417>
AnchorPoint: "Above" 405 0 basechar 0
LayerCount: 2
Back
SplineSet
195 437 m 5
 615 437 l 1029
405 309 m 5
 405 273 l 1029
195 602 m 5
 275 568 401 528 405 309 c 5
 401 519 516 571 616 602 c 1029
EndSplineSet
Fore
SplineSet
176.593381631 609.822812807 m 1
 184.416194438 628.229431176 l 1
 202.822812807 620.406618369 l 2
 260.055588152 596.082688848 351.998542657 564.900206495 397.411225904 457 c 1
 407.48454984 457 l 1
 448.709423998 563.235058206 536.603163422 598.325939565 610.078024578 621.103146523 c 2
 629.181171101 627.025121946 l 1
 635.103146523 607.921975422 l 1
 641.025121946 588.818828899 l 1
 621.921975422 582.896853477 l 2
 555.035137359 562.161933677 486.742440535 534.569309529 450.726407255 457 c 1
 615 457 l 1
 635 457 l 1
 635 437 l 1
 635 417 l 1
 615 417 l 1
 436.385882864 417 l 1
 433.066447098 404.574763337 430.400233421 391.1625628 428.464624902 376.664335765 c 0
 426.50591509 361.99307385 425.308214177 346.137626298 424.986560063 329 c 1
 425 329 l 1
 425 309 l 1
 425 273 l 1
 425 253 l 1
 405 253 l 1
 385 253 l 1
 385 273 l 1
 385 308.815607999 l 2
 384.531225235 334.011176581 382.391680758 356.560769869 378.91247982 376.765856586 c 0
 376.412081082 391.286654384 373.233011593 404.659885197 369.464564608 417 c 1
 195 417 l 1
 175 417 l 1
 175 437 l 1
 175 457 l 1
 195 457 l 1
 353.586487803 457 l 1
 313.604521485 536.460220841 243.357131725 559.716905205 187.177187193 583.593381631 c 2
 168.770568824 591.416194438 l 1
 176.593381631 609.822812807 l 1
EndSplineSet
EndChar

StartChar: xy.cvc.1
Encoding: 39 -1 46
Width: 810
VWidth: 0
Flags: W
HStem: 248 39<180.474 233.043>
VStem: 385 40<434.937 622>
AnchorPoint: "Above" 405 0 basechar 0
LayerCount: 2
Back
SplineSet
405.495117188 542.307617188 m 1
 405.495117188 602.198242188 l 1025
616.154296875 272.747070312 m 1
 531.869140625 303.916015625 409.943359375 343.573242188 405.495117188 542.307617188 c 1
 409.2734375 351.374023438 295.046875 300.501953125 194.834960938 272.747070312 c 1025
EndSplineSet
Fore
SplineSet
635 266 m 1
 628 247 l 1
 609 254 l 1
 610 254 609 255 609 254 c 1
 545 278 451 310 408 419 c 1
 369 311 277 274 200 253 c 2
 181 248 l 1
 176 267 l 1
 170 287 l 1
 189 292 l 2
 283 318 382 360 385 524 c 2
 385 542 l 1
 385 602 l 1
 385 622 l 1
 405 622 l 1
 425 622 l 1
 425 602 l 1
 425 543 l 1
 429 356 539 323 623 292 c 2
 642 285 l 1
 635 266 l 1
EndSplineSet
EndChar

StartChar: iy.cvc.1
Encoding: 40 -1 47
Width: 810
VWidth: 0
Flags: W
HStem: 253 40<215 636>
VStem: 175 40<293 622>
AnchorPoint: "Above" 405 0 basechar 0
LayerCount: 2
Back
SplineSet
616.154296875 272.747070312 m 5
 194.834960938 272.747070312 l 1
 194.834960938 602.198242188 l 1025
EndSplineSet
Fore
SplineSet
636 273 m 1
 636 253 l 1
 616 253 l 1
 195 253 l 2
 183 253 175 264 175 273 c 2
 175 602 l 1
 175 622 l 1
 195 622 l 1
 215 622 l 1
 215 602 l 1
 215 293 l 1
 616 293 l 1
 636 293 l 1
 636 273 l 1
EndSplineSet
EndChar

StartChar: ry.cvc.1
Encoding: 41 -1 48
Width: 810
VWidth: 0
Flags: W
AnchorPoint: "Above" 405 0 basechar 0
LayerCount: 2
Back
SplineSet
194.834960938 272.747070312 m 1
 616.154296875 602.198242188 l 1025
194.834960938 602.198242188 m 1
 616.154296875 272.747070312 l 1025
EndSplineSet
Fore
SplineSet
179 615 m 1
 191 630 l 1
 207 618 l 1
 405 463 l 1
 604 618 l 1
 620 630 l 1
 632 615 l 1
 644 599 l 1
 628 586 l 1
 438 437 l 1
 628 289 l 1
 644 276 l 1
 632 260 l 1
 620 245 l 1
 604 257 l 1
 405 412 l 1
 207 257 l 1
 207 258 206 256 207 257 c 1
 191 245 l 1
 179 260 l 1
 167 276 l 1
 183 289 l 1
 373 437 l 1
 183 586 l 1
 167 599 l 1
 179 615 l 1
EndSplineSet
EndChar

StartChar: my.cvc.1
Encoding: 48 -1 49
Width: 810
VWidth: 0
Flags: W
HStem: 253 40<215 596> 582 40<215 596>
VStem: 175 40<293 582> 596 40<293 582>
AnchorPoint: "Above" 405 0 basechar 0
LayerCount: 2
Back
SplineSet
194.834960938 602.198242188 m 1
 616.154296875 602.198242188 l 5
 616.154296875 272.747070312 l 5
 194.834960938 272.747070312 l 1
 194.834960938 602.198242188 l 1
EndSplineSet
Fore
SplineSet
195 622 m 2
 616 622 l 2
 628 622 636 611 636 602 c 2
 636 273 l 2
 636 261 625 253 616 253 c 2
 195 253 l 2
 183 253 175 264 175 273 c 2
 175 602 l 2
 175 614 186 622 195 622 c 2
215 582 m 1
 215 293 l 1
 596 293 l 1
 596 582 l 1
 215 582 l 1
EndSplineSet
EndChar

StartChar: by.cvc.1
Encoding: 49 -1 50
Width: 810
VWidth: 0
Flags: W
HStem: 253 40<215 636> 582 40<215 636>
VStem: 175 40<293 582>
AnchorPoint: "Above" 405 0 basechar 0
LayerCount: 2
Back
SplineSet
616 273 m 5
 195 273 l 1
 195 602 l 1
 616 602 l 1029
EndSplineSet
Fore
SplineSet
636 273 m 1
 636 253 l 1
 616 253 l 1
 195 253 l 2
 183 253 175 264 175 273 c 2
 175 602 l 2
 175 614 186 622 195 622 c 2
 616 622 l 1
 636 622 l 1
 636 602 l 1
 636 582 l 1
 616 582 l 1
 215 582 l 1
 215 293 l 1
 616 293 l 1
 636 293 l 1
 636 273 l 1
EndSplineSet
EndChar

StartChar: py.cvc.1
Encoding: 50 -1 51
Width: 810
VWidth: 0
Flags: W
HStem: 253 40<175 596> 582 40<175 596>
VStem: 596 40<293 582>
AnchorPoint: "Above" 405 0 basechar 0
LayerCount: 2
Back
SplineSet
194.834960938 602.198242188 m 1
 616.154296875 602.198242188 l 5
 616.319335938 273.197265625 l 5
 195 273 l 1025
EndSplineSet
Fore
SplineSet
175 602 m 1
 175 622 l 1
 195 622 l 1
 616 622 l 2
 627 622 636 612 636 602 c 2
 636 273 l 2
 636 261 625 253 616 253 c 2
 195 253 l 1
 175 253 l 1
 175 273 l 1
 175 293 l 1
 195 293 l 1
 596 293 l 1
 596 582 l 1
 195 582 l 1
 175 582 l 1
 175 602 l 1
EndSplineSet
EndChar

StartChar: vy.cvc.1
Encoding: 51 -1 52
Width: 810
VWidth: 0
Flags: W
HStem: 253 40<215 546>
VStem: 175 40<293 622>
AnchorPoint: "Above" 405 0 basechar 0
LayerCount: 2
Back
SplineSet
194.834960938 602.198242188 m 29
 194.834960938 272.747070312 l 29
 564.725585938 272.747070312 l 17
 569.626158187 338 556.894536431 471.347510701 640.110351562 602.198242188 c 1033
EndSplineSet
Fore
SplineSet
195 622 m 1
 215 622 l 1
 215 602 l 1
 215 293 l 1
 546 293 l 1
 548 362 544 489 623 613 c 2
 634 630 l 1
 651 619 l 1
 668 608 l 1
 657 591 l 2
 577 466 590 340 585 271 c 0
 584 261 575 253 565 253 c 2
 195 253 l 2
 186 253 175 261 175 273 c 2
 175 602 l 1
 175 622 l 1
 195 622 l 1
EndSplineSet
EndChar

StartChar: fy.cvc.1
Encoding: 52 -1 53
Width: 810
VWidth: 0
Flags: W
HStem: 582 40<266 597>
VStem: 597 40<253 582>
AnchorPoint: "Above" 405 0 basechar 0
LayerCount: 2
Back
SplineSet
617.110351562 272.747070312 m 25
 617.110351562 602.198242188 l 25
 247.219726562 602.198242188 l 17
 242.319335938 536.9453125 255.05078125 403.59765625 171.834960938 272.747070312 c 1033
EndSplineSet
Fore
SplineSet
617 253 m 1
 597 253 l 1
 597 273 l 1
 597 582 l 1
 266 582 l 1
 264 513 268 386 189 262 c 2
 178 245 l 1
 161 256 l 1
 144 267 l 1
 155 283 l 2
 235 408 222 535 227 604 c 0
 228 614 237 622 247 622 c 2
 617 622 l 2
 626 622 637 614 637 602 c 2
 637 273 l 1
 637 253 l 1
 617 253 l 1
155 283 m 1
 156 284 155 284 155 283 c 1
EndSplineSet
EndChar

StartChar: ky.cvc.1
Encoding: 53 -1 54
Width: 810
VWidth: 0
Flags: W
AnchorPoint: "Above" 405 0 basechar 0
LayerCount: 2
Back
SplineSet
194.834960938 602.198242188 m 1
 615.0546875 437.47265625 l 5
 194.834960938 272.747070312 l 1025
EndSplineSet
Fore
SplineSet
176 609 m 1
 184 628 l 1
 202 621 l 1
 622 456 l 2
 633 452 638 439 633 429 c 0
 631 424 625 420 622 419 c 2
 202 254 l 2
 184 247 l 1
 176 265 l 1
 169 284 l 1
 188 291 l 1
 560 437 l 1
 188 584 l 1
 169 591 l 1
 176 609 l 1
EndSplineSet
EndChar

StartChar: cy.cvc.1
Encoding: 54 -1 55
Width: 810
VWidth: 0
Flags: W
HStem: 247.975 38.2063<181.485 225.782> 417 40<176 362.568 453.228 636>
VStem: 385 40<457.469 622>
AnchorPoint: "Above" 405 0 basechar 0
LayerCount: 2
Back
SplineSet
616 437 m 5
 196 437 l 1029
405 556 m 5
 405 602 l 1029
616 273 m 5
 536 307 409 337 405 556 c 5
 409 346 295 304 195 273 c 1029
EndSplineSet
Fore
SplineSet
636 437 m 1
 636 417 l 1
 616 417 l 1
 453.227969657 417 l 1
 492.537170524 335.333049325 565.046954496 316.386358151 623.822812807 291.406618369 c 2
 642.229431176 283.583805562 l 1
 634.406618369 265.177187193 l 1
 626.583805562 246.770568824 l 1
 608.177187193 254.593381631 l 2
 550.854155954 278.955669907 454.649400002 305.47698978 409.745085864 417 c 1
 405.423190346 417 l 1
 365.629981706 306.975902055 275.183558983 276.91794438 200.921975422 253.896853477 c 2
 181.818828899 247.974878054 l 1
 175.896853477 267.078024578 l 1
 169.974878054 286.181171101 l 1
 189.078024578 292.103146523 l 2
 258.73640395 313.697244129 327.992806322 337.50817836 362.568081461 417 c 1
 196 417 l 1
 176 417 l 1
 176 437 l 1
 176 457 l 1
 196 457 l 1
 375.739742644 457 l 1
 378.129557691 466.994025637 380.100819959 477.65755011 381.616640275 489.048108236 c 0
 383.530168533 503.427223381 384.701161004 519.041993313 385.016009139 536 c 1
 385 536 l 1
 385 556 l 1
 385 602 l 1
 385 622 l 1
 405 622 l 1
 425 622 l 1
 425 602 l 1
 425 556.184409333 l 2
 425.465011346 531.195672304 427.587700189 508.962367584 431.034169786 489.160094995 c 0
 433.03040238 477.6904038 435.460057266 466.992270848 438.278286916 457 c 1
 616 457 l 1
 636 457 l 1
 636 437 l 1
EndSplineSet
EndChar

StartChar: yhy.cvc.1
Encoding: 55 -1 56
Width: 810
VWidth: 0
Flags: W
VStem: 175 40<314 622> 596 40<253 561>
AnchorPoint: "Above" 405 0 basechar 0
LayerCount: 2
Back
SplineSet
616 273 m 1
 616 602 l 1
 195 273 l 5
 195 602 l 1029
EndSplineSet
Fore
SplineSet
616 253 m 1
 596 253 l 1
 596 273 l 1
 596 561 l 1
 207 257 l 2
 198 250 184 252 178 262 c 0
 176 265 175 270 175 273 c 2
 175 602 l 1
 175 622 l 1
 195 622 l 1
 215 622 l 1
 215 602 l 1
 215 314 l 1
 604 618 l 2
 607 620 610 622 614 622 c 0
 625 623 636 613 636 602 c 2
 636 273 l 1
 636 253 l 1
 616 253 l 1
EndSplineSet
EndChar

StartChar: uy.cvc.1
Encoding: 56 -1 57
Width: 810
VWidth: 0
Flags: W
HStem: 253 40<175 596>
VStem: 596 40<293 622>
AnchorPoint: "Above" 405 0 basechar 0
LayerCount: 2
Back
SplineSet
616.154296875 602.198242188 m 25
 616.154296875 272.747070312 l 25
 194.834960938 272.747070312 l 1053
EndSplineSet
Fore
SplineSet
616 622 m 1
 636 622 l 1
 636 602 l 1
 636 273 l 2
 636 261 625 253 616 253 c 2
 195 253 l 1
 175 253 l 1
 175 273 l 1
 175 293 l 1
 195 293 l 1
 596 293 l 1
 596 602 l 1
 596 622 l 1
 616 622 l 1
EndSplineSet
EndChar

StartChar: ly.cvc.1
Encoding: 57 -1 58
Width: 810
VWidth: 0
Flags: W
HStem: 253 40<215 636> 417 40<215 596> 582 40<175 596>
VStem: 175 40<293 417> 596 40<457 582>
CounterMasks: 1 e0
AnchorPoint: "Above" 405 0 basechar 0
LayerCount: 2
Back
SplineSet
194.834960938 602.198242188 m 25
 616.154296875 602.198242188 l 25
 616.154296875 437.47265625 l 25
 194.934570312 437.47265625 l 25
 194.834960938 272.747070312 l 25
 616.154296875 272.747070312 l 1049
EndSplineSet
Fore
SplineSet
175 602 m 1
 175 622 l 1
 195 622 l 1
 616 622 l 2
 628 622 636 611 636 602 c 2
 636 437 l 2
 636 425 625 417 616 417 c 2
 215 417 l 1
 215 293 l 1
 616 293 l 1
 636 293 l 1
 636 273 l 1
 636 253 l 1
 616 253 l 1
 195 253 l 2
 186 253 175 261 175 273 c 2
 175 437 l 2
 175 447 184 457 195 457 c 2
 596 457 l 1
 596 582 l 1
 195 582 l 1
 175 582 l 1
 175 602 l 1
EndSplineSet
EndChar

StartChar: dy.ccv.1
Encoding: 97 -1 59
Width: 810
VWidth: 0
Flags: W
HStem: 35 40<124 365> 309 40<124 365> 582 40<124 365>
VStem: 84 40<75 309 349 582>
CounterMasks: 1 e0
AnchorPoint: "Above" 405 0 basechar 0
LayerCount: 2
Back
SplineSet
345.0546875 328.571289062 m 29
 104.395507812 328.571289062 l 1053
345.0546875 602.198242188 m 29
 104.395507812 602.198242188 l 29
 104.395507812 54.9453125 l 29
 345.0546875 54.9453125 l 1053
EndSplineSet
Fore
SplineSet
365 602 m 1
 365 582 l 1
 345 582 l 1
 124 582 l 1
 124 349 l 1
 345 349 l 1
 365 349 l 1
 365 329 l 1
 365 309 l 1
 345 309 l 1
 124 309 l 1
 124 75 l 1
 345 75 l 1
 365 75 l 1
 365 55 l 1
 365 35 l 1
 345 35 l 1
 104 35 l 2
 95 35 84 43 84 55 c 2
 84 309 l 1
 84 329 l 1
 84 349 l 1
 84 602 l 2
 84 611 92 622 104 622 c 2
 345 622 l 1
 365 622 l 1
 365 602 l 1
EndSplineSet
EndChar

StartChar: ty.ccv.1
Encoding: 98 -1 60
Width: 810
VWidth: 0
Flags: W
HStem: 35 40<84 325> 309 40<84 325> 582 40<84 325>
VStem: 325 40<75 309 349 582>
CounterMasks: 1 e0
AnchorPoint: "Above" 405 0 basechar 0
LayerCount: 2
Back
SplineSet
104.395507812 328.571289062 m 29
 345.0546875 328.571289062 l 1053
104.395507812 54.9453125 m 29
 345.0546875 54.9453125 l 29
 345.0546875 602.198242188 l 29
 104.395507812 602.198242188 l 1053
EndSplineSet
Fore
SplineSet
84 55 m 1
 84 75 l 1
 104 75 l 1
 325 75 l 1
 325 309 l 1
 104 309 l 1
 84 309 l 1
 84 329 l 1
 84 349 l 1
 104 349 l 1
 325 349 l 1
 325 582 l 1
 104 582 l 1
 84 582 l 1
 84 602 l 1
 84 622 l 1
 104 622 l 1
 345 622 l 2
 354 622 365 614 365 602 c 2
 365 349 l 1
 365 329 l 1
 365 309 l 1
 365 55 l 2
 365 46 357 35 345 35 c 2
 104 35 l 1
 84 35 l 1
 84 55 l 1
EndSplineSet
EndChar

StartChar: zy.ccv.1
Encoding: 99 -1 61
Width: 810
VWidth: 0
Flags: W
HStem: 35 40<124 223.497> 322 40<124 254>
VStem: 84 40<75 322 362 622>
AnchorPoint: "Above" 405 0 basechar 0
LayerCount: 2
Back
SplineSet
117.58203125 341.7578125 m 29
 256.043945312 341.7578125 l 1053
104.395507812 602.198242188 m 29
 104.395507812 54.9453125 l 29
 240.659179688 54.9453125 l 21
 253.796875 240.443359375 283.966796875 423.26171875 352.747070312 600 c 1037
EndSplineSet
Fore
SplineSet
104 622 m 1
 124 622 l 1
 124 602 l 1
 124 362 l 1
 256 362 l 1
 262 362 l 1
 279 445 303 526 334 607 c 2
 341 626 l 1
 360 619 l 1
 379 611 l 1
 371 593 l 2
 303 419 274 238 261 54 c 0
 260 45 252 35 241 35 c 2
 104 35 l 2
 95 35 84 43 84 55 c 2
 84 602 l 1
 84 622 l 1
 104 622 l 1
124 322 m 1
 124 75 l 1
 222 75 l 1
 228 158 239 240 254 322 c 1
 124 322 l 1
EndSplineSet
EndChar

StartChar: sy.ccv.1
Encoding: 100 -1 62
Width: 810
VWidth: 0
Flags: W
HStem: 295 40<196.017 325> 582 40<226.03 325>
VStem: 325 40<35 295 335 582>
AnchorPoint: "Above" 405 0 basechar 0
LayerCount: 2
Back
SplineSet
332 315 m 5
 193 315 l 1029
345 55 m 5
 345 602 l 5
 209 602 l 5
 196 417 166 234 97 57 c 1029
EndSplineSet
Fore
SplineSet
345 35 m 1
 325 35 l 1
 325 55 l 1
 325 295 l 1
 193 295 l 1
 188.038210223 295 l 1
 170.591482522 212.41255209 147.153148688 130.588893768 115.634160035 49.7358359187 c 2
 108.369995953 31.101675884 l 1
 89.7358359187 38.3658399653 l 1
 71.101675884 45.6300040466 l 1
 78.3658399653 64.2641640813 l 2
 146.376119201 238.725315164 176.133757183 419.605304977 189.049196986 603.40194832 c 0
 189.681613177 612.401717191 197.959517617 622 209 622 c 2
 345 622 l 2
 353.583923466 622 365 614.106030284 365 602 c 2
 365 55 l 1
 365 35 l 1
 345 35 l 1
78.3658399653 64.2641640813 m 1
 78.7290481693 65.1958720831 78.3658399653 65.2641640813 78.3658399653 64.2641640813 c 1
325 335 m 1
 325 582 l 1
 227.58570357 582 l 1
 221.227286865 499.088436321 211.372558193 416.688971896 196.017497274 335 c 1
 325 335 l 1
EndSplineSet
EndChar

StartChar: gy.ccv.1
Encoding: 101 -1 63
Width: 810
VWidth: 0
Flags: W
AnchorPoint: "Above" 405 0 basechar 0
LayerCount: 2
Back
SplineSet
343.956054688 596.703125 m 5
 104 328 l 5
 345 55 l 1029
EndSplineSet
Fore
SplineSet
357 612 m 1
 372 598 l 1
 359 583 l 1
 131 328 l 1
 360 68 l 1
 373 53 l 1
 358 40 l 1
 343 27 l 1
 330 42 l 1
 89 315 l 2
 83 322 82 333 89 341 c 2
 329 610 l 1
 342 625 l 1
 357 612 l 1
EndSplineSet
EndChar

StartChar: jy.ccv.1
Encoding: 102 -1 64
Width: 810
VWidth: 0
Flags: W
HStem: 309 40<84 201 247 365>
VStem: 204 40<35 309>
AnchorPoint: "Above" 405 0 basechar 0
LayerCount: 2
Back
SplineSet
104.395507812 328.571289062 m 29
 345.0546875 328.571289062 l 1053
345.0546875 602.198242188 m 21
 276.921875 535.53125 236.627929688 443.956054688 224.17578125 327.47265625 c 1037
104.395507812 602.198242188 m 21
 180.297851562 536.618164062 208.405273438 439.794921875 224.17578125 327.47265625 c 13
 224.17578125 54.9453125 l 1053
EndSplineSet
Fore
SplineSet
89 615 m 1
 102 630 l 1
 117 617 l 2
 173 568 205 505 224 433 c 1
 245 506 281 567 331 616 c 2
 345 630 l 1
 359 616 l 1
 373 602 l 1
 359 588 l 2
 299 530 262 451 247 349 c 1
 345 349 l 1
 365 349 l 1
 365 329 l 1
 365 309 l 1
 345 309 l 1
 244 309 l 1
 244 55 l 1
 244 35 l 1
 224 35 l 1
 204 35 l 1
 204 55 l 1
 204 309 l 1
 104 309 l 1
 84 309 l 1
 84 329 l 1
 84 349 l 1
 104 349 l 1
 201 349 l 1
 185 449 156 531 91 587 c 2
 76 600 l 1
 89 615 l 1
EndSplineSet
EndChar

StartChar: xy.ccv.1
Encoding: 103 -1 65
Width: 810
VWidth: 0
Flags: W
VStem: 205 40<346 620>
AnchorPoint: "Above" 405 0 basechar 0
LayerCount: 2
Back
SplineSet
104.395507812 54.9453125 m 21
 172.528320312 121.612304688 212.822265625 213.1875 225.274414062 329.670898438 c 1037
345.0546875 54.9453125 m 21
 269.15234375 120.525390625 241.044921875 217.348632812 225.274414062 329.670898438 c 13
 225.274414062 602.198242188 l 1053
EndSplineSet
Fore
SplineSet
360 40 m 1
 347 25 l 1
 332 38 l 2
 276 87 244 151 225 223 c 1
 204 150 168 88 118 39 c 2
 104 25 l 1
 90 39 l 1
 76 54 l 1
 90 68 l 2
 154 131 193 216 205 329 c 1
 205 600 l 1
 205 620 l 1
 225 620 l 1
 245 620 l 1
 245 600 l 1
 245 346 l 1
 247 346 l 1
 245 328 l 1
 261 218 288 128 358 68 c 2
 373 55 l 1
 360 40 l 1
EndSplineSet
EndChar

StartChar: iy.ccv.1
Encoding: 104 -1 66
Width: 810
VWidth: 0
Flags: W
HStem: 35 40<124 365>
VStem: 84 40<75 622>
AnchorPoint: "Above" 405 0 basechar 0
LayerCount: 2
Back
SplineSet
104.395507812 602.198242188 m 29
 104.395507812 54.9453125 l 29
 345.0546875 54.9453125 l 1053
EndSplineSet
Fore
SplineSet
104 622 m 1
 124 622 l 1
 124 602 l 1
 124 75 l 1
 345 75 l 1
 365 75 l 1
 365 55 l 1
 365 35 l 1
 345 35 l 1
 104 35 l 2
 95 35 84 43 84 55 c 2
 84 602 l 1
 84 622 l 1
 104 622 l 1
EndSplineSet
EndChar

StartChar: ry.ccv.1
Encoding: 105 -1 67
Width: 810
VWidth: 0
Flags: W
VStem: 78 292
AnchorPoint: "Above" 405 0 basechar 0
LayerCount: 2
Back
SplineSet
104.395507812 54.9453125 m 29
 343.956054688 602.198242188 l 1053
104.395507812 602.198242188 m 29
 343.956054688 54.9453125 l 1053
EndSplineSet
Fore
SplineSet
96 621 m 1
 115 629 l 1
 123 610 l 1
 224 378 l 1
 326 610 l 1
 334 629 l 1
 352 621 l 1
 370 612 l 1
 362 594 l 1
 246 329 l 1
 362 63 l 1
 370 45 l 1
 352 37 l 1
 334 29 l 1
 326 47 l 1
 224 279 l 1
 123 47 l 1
 115 29 l 1
 96 37 l 1
 78 45 l 1
 86 63 l 1
 202 329 l 1
 86 594 l 1
 78 612 l 1
 96 621 l 1
EndSplineSet
EndChar

StartChar: my.ccv.1
Encoding: 112 -1 68
Width: 810
VWidth: 0
Flags: W
HStem: 35 40<124 325> 582 40<124 325>
VStem: 84 40<75 582> 325 40<75 582>
AnchorPoint: "Above" 405 0 basechar 0
LayerCount: 2
Back
SplineSet
104.395507812 602.198242188 m 5
 345.0546875 602.198242188 l 5
 345.0546875 54.9453125 l 5
 104.395507812 54.9453125 l 5
 104.395507812 602.198242188 l 5
EndSplineSet
Fore
SplineSet
104 622 m 2
 345 622 l 2
 357 622 365 611 365 602 c 2
 365 55 l 2
 365 43 354 35 345 35 c 2
 104 35 l 2
 92 35 84 46 84 55 c 2
 84 602 l 2
 84 614 95 622 104 622 c 2
124 582 m 1
 124 75 l 1
 325 75 l 1
 325 582 l 1
 124 582 l 1
EndSplineSet
EndChar

StartChar: by.ccv.1
Encoding: 113 -1 69
Width: 810
VWidth: 0
Flags: W
HStem: 35 40<124 365> 582 40<124 365>
VStem: 84 40<75 582>
AnchorPoint: "Above" 405 0 basechar 0
LayerCount: 2
Back
SplineSet
345.0546875 602.198242188 m 29
 104.395507812 602.198242188 l 29
 104.395507812 54.9453125 l 29
 345.0546875 54.9453125 l 1053
EndSplineSet
Fore
SplineSet
365 602 m 1
 365 582 l 1
 345 582 l 1
 124 582 l 1
 124 75 l 1
 345 75 l 1
 365 75 l 1
 365 55 l 1
 365 35 l 1
 345 35 l 1
 104 35 l 2
 95 35 84 43 84 55 c 2
 84 602 l 2
 84 611 92 622 104 622 c 2
 345 622 l 1
 365 622 l 1
 365 602 l 1
EndSplineSet
EndChar

StartChar: py.ccv.1
Encoding: 114 -1 70
Width: 810
VWidth: 0
Flags: W
HStem: 35 40<84 325> 582 40<84 325>
VStem: 325 40<75 582>
AnchorPoint: "Above" 405 0 basechar 0
LayerCount: 2
Back
SplineSet
104.395507812 602.198242188 m 29
 345.0546875 602.198242188 l 29
 345.0546875 54.9453125 l 29
 104.395507812 54.9453125 l 1053
EndSplineSet
Fore
SplineSet
84 602 m 1
 84 622 l 1
 104 622 l 1
 345 622 l 2
 357 622 365 611 365 602 c 2
 365 55 l 2
 365 43 354 35 345 35 c 2
 104 35 l 1
 84 35 l 1
 84 55 l 1
 84 75 l 1
 104 75 l 1
 325 75 l 1
 325 582 l 1
 104 582 l 1
 84 582 l 1
 84 602 l 1
EndSplineSet
EndChar

StartChar: vy.ccv.1
Encoding: 115 -1 71
Width: 810
VWidth: 0
Flags: W
HStem: 35 40<124 223.363>
VStem: 84 40<75 622>
AnchorPoint: "Above" 405 0 basechar 0
LayerCount: 2
Back
SplineSet
104.395507812 602.198242188 m 29
 104.395507812 54.9453125 l 29
 240.659179688 54.9453125 l 21
 253.796875 240.443359375 283.966796875 423.26171875 352.747070312 600 c 1037
EndSplineSet
Fore
SplineSet
104 622 m 1
 124 622 l 1
 124 602 l 1
 124 75 l 1
 222 75 l 1
 236 256 267 434 334 607 c 2
 341 626 l 1
 360 619 l 1
 379 611 l 1
 371 593 l 2
 303 419 274 238 261 54 c 0
 260 45 252 35 241 35 c 2
 104 35 l 2
 95 35 84 43 84 55 c 2
 84 602 l 1
 84 622 l 1
 104 622 l 1
EndSplineSet
EndChar

StartChar: fy.ccv.1
Encoding: 116 -1 72
Width: 810
VWidth: 0
Flags: W
HStem: 582 40<226.239 325>
VStem: 325 40<35 582>
LayerCount: 2
Back
SplineSet
345 55 m 5
 345 602 l 5
 209 602 l 5
 196 417 166 234 97 57 c 1029
EndSplineSet
Fore
SplineSet
345 35 m 1
 325 35 l 1
 325 55 l 1
 325 582 l 1
 227.58570357 582 l 1
 213.740860479 401.468014953 183.319691362 223.363938019 115.634160035 49.7358359187 c 2
 108.369995953 31.101675884 l 1
 89.7358359187 38.3658399653 l 1
 71.101675884 45.6300040466 l 1
 78.3658399653 64.2641640813 l 2
 146.376119201 238.725315164 176.133757183 419.605304977 189.049196986 603.40194832 c 0
 189.681613177 612.401717191 197.959517617 622 209 622 c 2
 345 622 l 2
 353.583923466 622 365 614.106030284 365 602 c 2
 365 55 l 1
 365 35 l 1
 345 35 l 1
78.3658399653 64.2641640813 m 1
 78.7290481693 65.1958720831 78.3658399653 65.2641640813 78.3658399653 64.2641640813 c 1
EndSplineSet
EndChar

StartChar: ky.ccv.1
Encoding: 117 -1 73
Width: 810
VWidth: 0
Flags: W
AnchorPoint: "Above" 405 0 basechar 0
LayerCount: 2
Back
SplineSet
104.395507812 602.198242188 m 29
 343.956054688 326.374023438 l 29
 104.395507812 54.9453125 l 1053
EndSplineSet
Fore
SplineSet
91 617 m 1
 106 630 l 1
 119 615 l 1
 359 339 l 2
 366 331 365 319 359 313 c 2
 119 42 l 1
 106 27 l 1
 91 40 l 1
 76 53 l 1
 89 68 l 1
 317 326 l 1
 89 589 l 1
 76 604 l 1
 91 617 l 1
EndSplineSet
EndChar

StartChar: cy.ccv.1
Encoding: 118 -1 74
Width: 810
VWidth: 0
Flags: W
HStem: 309 40<83 201 248 364>
VStem: 204 40<349 622>
AnchorPoint: "Above" 405 0 basechar 0
LayerCount: 2
Back
SplineSet
343.956054688 328.571289062 m 29
 103.296875 328.571289062 l 1053
103.296875 54.9453125 m 21
 171.430664062 121.612304688 211.72265625 213.186523438 224.17578125 329.669921875 c 1037
343.956054688 54.9453125 m 21
 268.053710938 120.5234375 239.946289062 217.348632812 224.17578125 329.669921875 c 13
 224.17578125 602.198242188 l 1053
EndSplineSet
Fore
SplineSet
359 42 m 1
 346 27 l 1
 331 40 l 1
 332 39 331 39 331 40 c 1
 275 89 243 153 224 225 c 1
 203 152 167 90 117 41 c 1
 117 40 116 40 117 41 c 1
 103 27 l 1
 89 41 l 1
 75 55 l 1
 89 69 l 1
 88 68 89 68 89 69 c 1
 149 127 186 207 201 309 c 1
 103 309 l 1
 83 309 l 1
 83 329 l 1
 83 349 l 1
 103 349 l 1
 204 349 l 1
 204 602 l 1
 204 622 l 1
 224 622 l 1
 244 622 l 1
 244 602 l 1
 244 349 l 1
 344 349 l 1
 364 349 l 1
 364 329 l 1
 364 309 l 1
 344 309 l 1
 248 309 l 1
 264 209 292 126 357 70 c 2
 372 57 l 1
 359 42 l 1
EndSplineSet
EndChar

StartChar: yhy.ccv.1
Encoding: 119 -1 75
Width: 810
VWidth: 0
Flags: W
VStem: 84 40<35.0498 47 150 622> 325 40<35 507 610 619.81>
AnchorPoint: "Above" 405 0 basechar 0
LayerCount: 2
Back
SplineSet
104 602 m 29
 104 55 l 29
 345 602 l 29
 345 55 l 1053
EndSplineSet
Fore
SplineSet
104 622 m 1
 124 622 l 1
 124 602 l 1
 124 150 l 1
 327 610 l 2
 332 621 344 625 354 620 c 0
 361 616 365 609 365 602 c 2
 365 55 l 1
 365 35 l 1
 345 35 l 1
 325 35 l 1
 325 55 l 1
 325 507 l 1
 122 47 l 2
 119 41 113 36 106 35 c 0
 95 34 84 44 84 55 c 2
 84 602 l 1
 84 622 l 1
 104 622 l 1
EndSplineSet
EndChar

StartChar: uy.ccv.1
Encoding: 120 -1 76
Width: 810
VWidth: 0
Flags: W
HStem: 35 40<84 325>
VStem: 325 40<75 622>
AnchorPoint: "Above" 405 0 basechar 0
LayerCount: 2
Back
SplineSet
345.0546875 602.198242188 m 29
 345.0546875 54.9453125 l 29
 104.395507812 54.9453125 l 1053
EndSplineSet
Fore
SplineSet
345 622 m 1
 365 622 l 1
 365 602 l 1
 365 55 l 2
 365 43 354 35 345 35 c 2
 104 35 l 1
 84 35 l 1
 84 55 l 1
 84 75 l 1
 104 75 l 1
 325 75 l 1
 325 602 l 1
 325 622 l 1
 345 622 l 1
EndSplineSet
EndChar

StartChar: ly.ccv.1
Encoding: 121 -1 77
Width: 810
VWidth: 0
Flags: W
HStem: 35 40<124 364> 309 40<124 324> 582 40<84 324>
VStem: 84 40<75 309> 324 40<349 582>
CounterMasks: 1 e0
AnchorPoint: "Above" 405 0 basechar 0
LayerCount: 2
Back
SplineSet
104.395507812 602.198242188 m 29
 343.956054688 602.198242188 l 29
 343.956054688 328.571289062 l 29
 104.395507812 328.571289062 l 29
 104.395507812 54.9453125 l 29
 343.956054688 54.9453125 l 1053
EndSplineSet
Fore
SplineSet
84 602 m 1
 84 622 l 1
 104 622 l 1
 344 622 l 2
 356 622 364 611 364 602 c 2
 364 329 l 2
 364 317 353 309 344 309 c 2
 124 309 l 1
 124 75 l 1
 344 75 l 1
 364 75 l 1
 364 55 l 1
 364 35 l 1
 344 35 l 1
 104 35 l 2
 95 35 84 43 84 55 c 2
 84 329 l 2
 84 338 92 349 104 349 c 2
 324 349 l 1
 324 582 l 1
 104 582 l 1
 84 582 l 1
 84 602 l 1
EndSplineSet
EndChar

StartChar: denpabu.cvc.1
Encoding: 63 -1 78
Width: 810
VWidth: 0
Flags: W
HStem: 225 40<301.828 508.366> 588 40<301.828 508.366>
VStem: 146 40<360.729 491.411> 625 40<363.116 489.017>
AnchorPoint: "Above" 405 0 basechar 0
LayerCount: 2
Back
SplineSet
165.93359375 426.374023438 m 0
 165.93359375 526.374023438 273.625976562 607.692382812 405.494140625 607.692382812 c 0
 537.362304688 607.692382812 645.0546875 526.374023438 645.0546875 426.374023438 c 0
 645.0546875 326.374023438 537.362304688 245.0546875 405.494140625 245.0546875 c 0
 273.625976562 245.0546875 165.93359375 326.374023438 165.93359375 426.374023438 c 0
EndSplineSet
Fore
SplineSet
146 426 m 0
 146 542 267 628 405 628 c 0
 543 628 665 542 665 426 c 0
 665 310 543 225 405 225 c 0
 267 225 146 310 146 426 c 0
186 426 m 0
 186 342 279 265 405 265 c 0
 531 265 625 342 625 426 c 0
 625 510 531 588 405 588 c 0
 279 588 186 510 186 426 c 0
EndSplineSet
EndChar

StartChar: ybu.cv
Encoding: 47 -1 79
Width: 0
VWidth: 0
Flags: W
HStem: -114 40<112 385 425 699>
VStem: 385 40<-266 -114>
AnchorPoint: "Above" 405 0 mark 0
LayerCount: 2
Back
SplineSet
405 -94 m 5
 405 -246 l 1029
679 -94 m 5
 132 -94 l 1029
EndSplineSet
Fore
SplineSet
699 -94 m 1
 699 -114 l 1
 679 -114 l 1
 425 -114 l 1
 425 -246 l 1
 425 -266 l 1
 405 -266 l 1
 385 -266 l 1
 385 -246 l 1
 385 -114 l 1
 132 -114 l 1
 112 -114 l 1
 112 -94 l 1
 112 -74 l 1
 132 -74 l 1
 385 -74 l 1
 405 -74 l 1
 425 -74 l 1
 679 -74 l 1
 699 -74 l 1
 699 -94 l 1
EndSplineSet
Substitution2: "Single Substitution lookup 73 subtable" ybu.cvc
Substitution2: "Single Substitution lookup 69 subtable" ybu.ccv
EndChar

StartChar: eibu.cv
Encoding: 58 -1 80
Width: 0
VWidth: 0
Flags: W
HStem: -114 40<152 385 425 699>
VStem: 112 40<-363 -113> 385 40<-74 54>
AnchorPoint: "Above" 405 0 mark 0
LayerCount: 2
Back
SplineSet
405.494140625 34.06640625 m 5
 405 -94 l 1029
679 -94 m 5
 132 -93.40625 l 5
 132 -342.857421875 l 1029
EndSplineSet
Fore
SplineSet
699 -94 m 1
 699 -114 l 1
 679 -114 l 1
 425 -114 l 2
 405 -114 l 1
 385 -114 l 2
 152 -113 l 1
 152 -343 l 1
 152 -363 l 1
 132 -363 l 1
 112 -363 l 1
 112 -343 l 1
 112 -93 l 2
 112 -84 120 -73 132 -73 c 2
 385 -74 l 1
 385 34 l 1
 386 54 l 1
 406 54 l 1
 426 54 l 1
 425 34 l 1
 425 -74 l 1
 679 -74 l 1
 699 -74 l 1
 699 -94 l 1
EndSplineSet
Substitution2: "Single Substitution lookup 73 subtable" eibu.cvc
Substitution2: "Single Substitution lookup 69 subtable" eibu.ccv
EndChar

StartChar: oibu.cv
Encoding: 59 -1 81
Width: 0
VWidth: 0
Flags: W
HStem: -114 40<112 385 425 659>
VStem: 385 40<-74 54> 659 40<-363 -114>
AnchorPoint: "Above" 405 0 mark 0
LayerCount: 2
Back
SplineSet
132 -94 m 1053,1,-1
405 34 m 5,3,-1
 405 -94 l 1053
132 -94 m 5,5,-1
 679 -94 l 5,6,-1
 679 -343 l 1053
EndSplineSet
Fore
SplineSet
405 54 m 1
 425 54 l 1
 425 34 l 1
 425 -74 l 1
 679 -74 l 2
 691 -74 699 -85 699 -94 c 2
 699 -343 l 1
 699 -363 l 1
 679 -363 l 1
 659 -363 l 1
 659 -343 l 1
 659 -114 l 1
 425 -114 l 1
 405 -114 l 1
 385 -114 l 1
 152 -114 l 1
 132 -114 l 1
 112 -114 l 1
 112 -94 l 1
 112 -74 l 1
 132 -74 l 1
 152 -74 l 1
 385 -74 l 1
 385 34 l 1
 385 54 l 1
 405 54 l 1
EndSplineSet
Substitution2: "Single Substitution lookup 73 subtable" oibu.cvc
Substitution2: "Single Substitution lookup 69 subtable" oibu.ccv
EndChar

StartChar: aibu.cv
Encoding: 60 -1 82
Width: 0
VWidth: 0
Flags: W
HStem: -114 40<112 385 425 699>
VStem: 385 40<-74 53>
AnchorPoint: "Above" 405 0 mark 0
LayerCount: 2
Back
SplineSet
405 33 m 5
 405 -94 l 1053
132 -93.40625 m 13
 679 -94 l 1053
EndSplineSet
Fore
SplineSet
112 -93 m 1
 112 -73 l 1
 132 -73 l 1
 385 -74 l 1
 385 33 l 1
 385 53 l 1
 405 53 l 1
 425 53 l 1
 425 33 l 1
 425 -74 l 1
 679 -74 l 1
 699 -74 l 1
 699 -94 l 1
 699 -114 l 1
 679 -114 l 1
 425 -114 l 1
 405 -114 l 1
 385 -114 l 1
 132 -113 l 1
 112 -113 l 1
 112 -93 l 1
EndSplineSet
Substitution2: "Single Substitution lookup 73 subtable" aibu.cvc
Substitution2: "Single Substitution lookup 69 subtable" aibu.ccv
EndChar

StartChar: aubu.cv
Encoding: 61 -1 83
Width: 0
VWidth: 0
Flags: W
HStem: -113 40<152 659>
VStem: 112 40<-363 -113> 659 40<-363 -113>
AnchorPoint: "Above" 405 0 mark 0
LayerCount: 2
Back
SplineSet
679 -342.857421875 m 25
 679 -93.40625 l 1
 132 -94 l 9
 132 -343 l 1025
EndSplineSet
Fore
SplineSet
679 -363 m 1
 659 -363 l 1
 659 -343 l 1
 659 -113 l 1
 152 -113 l 1
 152 -343 l 1
 152 -363 l 1
 132 -363 l 1
 112 -363 l 1
 112 -343 l 1
 112 -113 l 1
 112 -93 l 2
 112 -84 120 -73 132 -73 c 2
 152 -73 l 1
 679 -73 l 2
 688 -73 699 -81 699 -93 c 2
 699 -343 l 1
 699 -363 l 1
 679 -363 l 1
EndSplineSet
Substitution2: "Single Substitution lookup 73 subtable" aubu.cvc
Substitution2: "Single Substitution lookup 69 subtable" aubu.ccv
EndChar

StartChar: ubu.cv
Encoding: 45 -1 84
Width: 0
VWidth: 0
Flags: W
HStem: -113 40<112 385 425 659>
VStem: 385 40<-266 -113> 659 40<-363 -113>
AnchorPoint: "Above" 405 0 mark 0
LayerCount: 2
Back
SplineSet
405 -94 m 29
 405 -246 l 1029
132 -93.40625 m 5
 679 -93.40625 l 5
 679 -342.857421875 l 1053
EndSplineSet
Fore
SplineSet
112 -93 m 1
 112 -73 l 1
 132 -73 l 1
 679 -73 l 2
 691 -73 699 -84 699 -93 c 2
 699 -343 l 1
 699 -363 l 1
 679 -363 l 1
 659 -363 l 1
 659 -343 l 1
 659 -113 l 1
 425 -113 l 1
 425 -246 l 1
 425 -266 l 1
 405 -266 l 1
 385 -266 l 1
 385 -246 l 1
 385 -113 l 1
 132 -113 l 1
 112 -113 l 1
 112 -93 l 1
EndSplineSet
Substitution2: "Single Substitution lookup 73 subtable" ubu.cvc
Substitution2: "Single Substitution lookup 69 subtable" ubu.ccv
EndChar

StartChar: abu.cv
Encoding: 46 -1 85
Width: 0
VWidth: 0
Flags: W
HStem: -113 40<112 699>
AnchorPoint: "Above" 405 0 mark 0
LayerCount: 2
Back
SplineSet
132 -93.40625 m 5
 679 -93.40625 l 1029
EndSplineSet
Fore
SplineSet
112 -93 m 1
 112 -73 l 1
 132 -73 l 1
 679 -73 l 1
 699 -73 l 1
 699 -93 l 1
 699 -113 l 1
 679 -113 l 1
 132 -113 l 1
 112 -113 l 1
 112 -93 l 1
EndSplineSet
Substitution2: "Single Substitution lookup 73 subtable" abu.cvc
Substitution2: "Single Substitution lookup 69 subtable" abu.ccv
EndChar

StartChar: eibu.ccv
Encoding: 122 -1 104
Width: 0
VWidth: 0
Flags: W
HStem: -114 40<124 385 425 728>
VStem: 84 40<-363 -114> 385 40<-74 27>
AnchorPoint: "Above" 405 0 mark 0
LayerCount: 2
Back
SplineSet
405 7 m 5
 405 -94 l 1029
104 -343 m 29
 104 -94 l 29
 708 -94 l 1053
EndSplineSet
Fore
SplineSet
104 -363 m 1
 84 -363 l 1
 84 -343 l 1
 84 -94 l 2
 84 -82 95 -74 104 -74 c 2
 385 -74 l 1
 385 7 l 1
 385 27 l 1
 405 27 l 1
 425 27 l 1
 425 7 l 1
 425 -74 l 1
 708 -74 l 1
 728 -74 l 1
 728 -94 l 1
 728 -114 l 1
 708 -114 l 1
 425 -114 l 1
 405 -114 l 1
 385 -114 l 1
 124 -114 l 1
 124 -343 l 1
 124 -363 l 1
 104 -363 l 1
EndSplineSet
EndChar

StartChar: obu.ccv
Encoding: 107 -1 105
Width: 0
VWidth: 0
Flags: W
HStem: -114 40<84 385 425 688>
VStem: 385 40<-266 -114> 688 40<-363 -114>
AnchorPoint: "Above" 405 0 mark 0
LayerCount: 2
Back
SplineSet
405 -94 m 25
 405 -246 l 1025
708 -343 m 25
 708 -94 l 1
 104 -94 l 1025
EndSplineSet
Fore
SplineSet
708 -363 m 1
 688 -363 l 1
 688 -343 l 1
 688 -114 l 1
 425 -114 l 1
 425 -246 l 1
 425 -266 l 1
 405 -266 l 1
 385 -266 l 1
 385 -246 l 1
 385 -114 l 1
 104 -114 l 1
 84 -114 l 1
 84 -94 l 1
 84 -74 l 1
 104 -74 l 1
 385 -74 l 1
 405 -74 l 1
 425 -74 l 1
 708 -74 l 2
 717 -74 728 -82 728 -94 c 2
 728 -343 l 1
 728 -363 l 1
 708 -363 l 1
EndSplineSet
EndChar

StartChar: oibu.ccv
Encoding: 123 -1 106
Width: 0
VWidth: 0
Flags: W
HStem: -114 40<84 385 425 688>
VStem: 385 40<-74 27> 688 40<-363 -114>
AnchorPoint: "Above" 406 0 mark 0
LayerCount: 2
Back
SplineSet
405 7 m 5
 405 -94 l 1029
104 -94 m 29
 708 -94 l 29
 708 -343 l 1053
EndSplineSet
Fore
SplineSet
84 -94 m 1
 84 -74 l 1
 104 -74 l 1
 385 -74 l 1
 385 7 l 1
 385 27 l 1
 405 27 l 1
 425 27 l 1
 425 7 l 1
 425 -74 l 1
 708 -74 l 2
 720 -74 728 -85 728 -94 c 2
 728 -343 l 1
 728 -363 l 1
 708 -363 l 1
 688 -363 l 1
 688 -343 l 1
 688 -114 l 1
 425 -114 l 1
 405 -114 l 1
 385 -114 l 1
 104 -114 l 1
 84 -114 l 1
 84 -94 l 1
EndSplineSet
EndChar

StartChar: ybu.ccv
Encoding: 111 -1 107
Width: 0
VWidth: 0
Flags: W
HStem: -114 40<84 385 425 728>
VStem: 385 40<-266 -114>
AnchorPoint: "Above" 405 0 mark 0
LayerCount: 2
Back
SplineSet
405 -94 m 29
 405 -246 l 1029
104 -94 m 29
 708 -94 l 1053
EndSplineSet
Fore
SplineSet
84 -94 m 1
 84 -74 l 1
 104 -74 l 1
 385 -74 l 1
 405 -74 l 1
 425 -74 l 1
 708 -74 l 1
 728 -74 l 1
 728 -94 l 1
 728 -114 l 1
 708 -114 l 1
 425 -114 l 1
 425 -246 l 1
 425 -266 l 1
 405 -266 l 1
 385 -266 l 1
 385 -246 l 1
 385 -114 l 1
 104 -114 l 1
 84 -114 l 1
 84 -94 l 1
EndSplineSet
EndChar

StartChar: ebu.cvc
Encoding: 74 -1 108
Width: 0
VWidth: 0
Flags: W
HStem: 110 40<75 776>
VStem: 35 40<-188 110>
AnchorPoint: "Above" 405 -0 mark 0
LayerCount: 2
Back
SplineSet
756 130 m 5
 54.9453125 129.669921875 l 5
 55 -168 l 1029
EndSplineSet
Fore
SplineSet
776 130 m 1
 776 110 l 1
 756 110 l 1
 75 110 l 1
 75 -168 l 1
 75 -188 l 1
 55 -188 l 1
 35 -188 l 1
 35 -168 l 1
 35 130 l 2
 35 140 44 150 55 150 c 2
 756 150 l 1
 776 150 l 1
 776 130 l 1
405 -13 m 1025
EndSplineSet
EndChar

StartChar: obu.cvc
Encoding: 75 -1 109
Width: 0
VWidth: 0
Flags: W
HStem: 110 40<35 735>
VStem: 736 40<-188 110>
AnchorPoint: "Above" 405 -1 mark 0
LayerCount: 2
Back
SplineSet
55 130 m 29
 755 130 l 5
 756 -168 l 1053
EndSplineSet
Fore
SplineSet
35 130 m 1
 35 150 l 1
 55 150 l 1
 755 150 l 2
 766 150 775 140 775 130 c 2
 776 -168 l 1
 776 -188 l 1
 756 -188 l 1
 736 -188 l 1
 736 -168 l 1
 735 110 l 1
 55 110 l 1
 35 110 l 1
 35 130 l 1
EndSplineSet
EndChar

StartChar: ibu.cvc
Encoding: 76 -1 110
Width: 0
VWidth: 0
Flags: W
HStem: 110 40<74 385 425 778>
VStem: 35 40<-188 110> 385 40<-13 110>
AnchorPoint: "Above" 405 0 mark 0
LayerCount: 2
Back
SplineSet
405 7 m 29
 405 130 l 1053
758 130 m 29
 54 130 l 29
 55 -168 l 1053
EndSplineSet
Fore
SplineSet
778 130 m 1
 778 110 l 1
 758 110 l 1
 425 110 l 1
 425 7 l 1
 425 -13 l 1
 405 -13 l 1
 385 -13 l 1
 385 7 l 1
 385 110 l 1
 74 110 l 1
 75 -168 l 1
 75 -188 l 1
 55 -188 l 1
 35 -188 l 1
 35 -168 l 1
 34 130 l 2
 34 139 42 150 54 150 c 2
 385 150 l 1
 405 150 l 1
 425 150 l 1
 758 150 l 1
 778 150 l 1
 778 130 l 1
EndSplineSet
EndChar

StartChar: ubu.cvc
Encoding: 77 -1 111
Width: 0
VWidth: 0
Flags: W
HStem: 110 40<36 385 425 737>
VStem: 385 40<-13 110> 736 40<-188 110>
AnchorPoint: "Above" 405 0 mark 0
LayerCount: 2
Back
SplineSet
405 7 m 29
 405 130 l 1053
56 130 m 29
 757 130 l 29
 756 -168 l 1053
EndSplineSet
Fore
SplineSet
36 130 m 1
 36 150 l 1
 56 150 l 1
 385 150 l 1
 405 150 l 1
 425 150 l 1
 757 150 l 2
 769 150 777 139 777 130 c 2
 776 -168 l 1
 776 -188 l 1
 756 -188 l 1
 736 -188 l 1
 736 -168 l 1
 737 110 l 1
 425 110 l 1
 425 7 l 1
 425 -13 l 1
 405 -13 l 1
 385 -13 l 1
 385 7 l 1
 385 110 l 1
 56 110 l 1
 36 110 l 1
 36 130 l 1
EndSplineSet
EndChar

StartChar: abu.cvc
Encoding: 78 -1 112
Width: 0
VWidth: 0
Flags: W
HStem: 110 40<35 775>
AnchorPoint: "Above" 405 0 mark 0
LayerCount: 2
Back
SplineSet
55 130 m 29
 755 130 l 1053
EndSplineSet
Fore
SplineSet
35 130 m 1
 35 150 l 1
 55 150 l 1
 755 150 l 1
 775 150 l 1
 775 130 l 1
 775 110 l 1
 755 110 l 1
 55 110 l 1
 35 110 l 1
 35 130 l 1
EndSplineSet
EndChar

StartChar: ybu.cvc
Encoding: 79 -1 113
Width: 0
VWidth: 0
Flags: W
HStem: 110 40<36 385 425 777>
VStem: 385 40<-13 110>
AnchorPoint: "Above" 405 0 mark 0
LayerCount: 2
Back
SplineSet
405 130 m 29
 405 7 l 1029
56 130 m 29
 757 130 l 1053
EndSplineSet
Fore
SplineSet
36 130 m 1
 36 150 l 1
 56 150 l 1
 385 150 l 1
 405 150 l 1
 425 150 l 1
 757 150 l 1
 777 150 l 1
 777 130 l 1
 777 110 l 1
 757 110 l 1
 425 110 l 1
 425 7 l 1
 425 -13 l 1
 405 -13 l 1
 385 -13 l 1
 385 7 l 1
 385 110 l 1
 56 110 l 1
 36 110 l 1
 36 130 l 1
EndSplineSet
EndChar

StartChar: eibu.cvc
Encoding: 90 -1 114
Width: 0
VWidth: 0
Flags: W
HStem: 110 40<75 385 425 775>
VStem: 35 40<-188 110> 385 40<150 273>
AnchorPoint: "Above" 405 0 mark 0
LayerCount: 2
Back
SplineSet
405 130 m 5
 405 253 l 1029
55 -168 m 29
 55 130 l 29
 755 130 l 1053
EndSplineSet
Fore
SplineSet
55 -188 m 1
 35 -188 l 1
 35 -168 l 1
 35 130 l 2
 35 142 46 150 55 150 c 2
 385 150 l 1
 385 253 l 1
 385 273 l 1
 405 273 l 1
 425 273 l 1
 425 253 l 1
 425 150 l 1
 755 150 l 1
 775 150 l 1
 775 130 l 1
 775 110 l 1
 755 110 l 1
 425 110 l 1
 405 110 l 1
 385 110 l 1
 75 110 l 1
 75 -168 l 1
 75 -188 l 1
 55 -188 l 1
EndSplineSet
EndChar

StartChar: oibu.cvc
Encoding: 91 -1 115
Width: 0
VWidth: 0
Flags: W
HStem: 110 40<35 385 425 736>
VStem: 385 40<150 273> 736 40<-188 110>
AnchorPoint: "Above" 405 0 mark 0
LayerCount: 2
Back
SplineSet
405 130 m 5
 405 253 l 1029
756 -168 m 29
 756 130 l 5
 55 130 l 1053
EndSplineSet
Fore
SplineSet
756 -188 m 1
 736 -188 l 1
 736 -168 l 1
 736 110 l 1
 425 110 l 1
 405 110 l 1
 385 110 l 1
 55 110 l 1
 35 110 l 1
 35 130 l 1
 35 150 l 1
 55 150 l 1
 385 150 l 1
 385 253 l 1
 385 273 l 1
 405 273 l 1
 425 273 l 1
 425 253 l 1
 425 150 l 1
 756 150 l 2
 765 150 776 142 776 130 c 2
 776 -168 l 1
 776 -188 l 1
 756 -188 l 1
EndSplineSet
EndChar

StartChar: aibu.cvc
Encoding: 92 -1 116
Width: 0
VWidth: 0
Flags: W
HStem: 110 40<35 385 425 777>
VStem: 385 40<150 273>
AnchorPoint: "Above" 405 0 mark 0
LayerCount: 2
Back
SplineSet
405 253 m 5
 405 130 l 1053
55 130 m 29
 757 130 l 1053
EndSplineSet
Fore
SplineSet
35 130 m 1
 35 150 l 1
 55 150 l 1
 385 150 l 1
 385 253 l 1
 385 273 l 1
 405 273 l 1
 425 273 l 1
 425 253 l 1
 425 150 l 1
 757 150 l 1
 777 150 l 1
 777 130 l 1
 777 110 l 1
 757 110 l 1
 425 110 l 1
 405 110 l 1
 385 110 l 1
 55 110 l 1
 35 110 l 1
 35 130 l 1
EndSplineSet
EndChar

StartChar: aubu.cvc
Encoding: 93 -1 117
Width: 0
VWidth: 0
Flags: W
HStem: 110 40<75 735>
VStem: 35 40<-188 110> 736 40<-188 110>
AnchorPoint: "Above" 405 0 mark 0
LayerCount: 2
Back
SplineSet
756 -168 m 25
 755 130 l 25
 55 130 l 25
 55 -168 l 1049
EndSplineSet
Fore
SplineSet
756 -188 m 1
 736 -188 l 1
 736 -168 l 1
 735 110 l 1
 75 110 l 1
 75 -168 l 1
 75 -188 l 1
 55 -188 l 1
 35 -188 l 1
 35 -168 l 1
 35 130 l 2
 35 139 43 150 55 150 c 2
 755 150 l 2
 765 150 775 141 775 130 c 2
 776 -168 l 1
 776 -188 l 1
 756 -188 l 1
EndSplineSet
EndChar

StartChar: ibu.ccv
Encoding: 108 -1 119
Width: 0
VWidth: 0
Flags: W
HStem: -114 40<124 728>
VStem: 84 40<-363 -114>
AnchorPoint: "Above" 405 0 mark 0
LayerCount: 2
Back
SplineSet
708 -94 m 29
 104 -94 l 29
 104 -343 l 1053
EndSplineSet
Fore
SplineSet
728 -94 m 1
 728 -114 l 1
 708 -114 l 1
 124 -114 l 1
 124 -343 l 1
 124 -363 l 1
 104 -363 l 1
 84 -363 l 1
 84 -343 l 1
 84 -94 l 2
 84 -85 92 -74 104 -74 c 2
 708 -74 l 1
 728 -74 l 1
 728 -94 l 1
EndSplineSet
EndChar

StartChar: ubu.ccv
Encoding: 109 -1 120
Width: 0
VWidth: 0
Flags: W
HStem: -114 40<84 688>
VStem: 688 40<-363 -114>
AnchorPoint: "Above" 405 0 mark 0
LayerCount: 2
Back
SplineSet
104 -94 m 29
 708 -94 l 29
 708 -343 l 1053
EndSplineSet
Fore
SplineSet
84 -94 m 1
 84 -74 l 1
 104 -74 l 1
 708 -74 l 2
 720 -74 728 -85 728 -94 c 2
 728 -343 l 1
 728 -363 l 1
 708 -363 l 1
 688 -363 l 1
 688 -343 l 1
 688 -114 l 1
 104 -114 l 1
 84 -114 l 1
 84 -94 l 1
EndSplineSet
EndChar

StartChar: abu.ccv
Encoding: 110 -1 121
Width: 0
VWidth: 0
Flags: W
HStem: -114 40<84 728>
AnchorPoint: "Above" 405 0 mark 0
LayerCount: 2
Back
SplineSet
104 -94 m 29
 708 -94 l 1053
EndSplineSet
Fore
SplineSet
84 -94 m 1
 84 -74 l 1
 104 -74 l 1
 708 -74 l 1
 728 -74 l 1
 728 -94 l 1
 728 -114 l 1
 708 -114 l 1
 104 -114 l 1
 84 -114 l 1
 84 -94 l 1
EndSplineSet
EndChar

StartChar: aibu.ccv
Encoding: 124 -1 122
Width: 0
VWidth: 0
Flags: W
HStem: -114 40<84 385 425 728>
VStem: 385 40<-115 -114 -74 27>
AnchorPoint: "Above" 405 0 mark 0
LayerCount: 2
Back
SplineSet
405 7 m 29
 405 -95 l 1053
708 -94 m 29
 104 -94 l 1053
EndSplineSet
Fore
SplineSet
728 -94 m 1
 728 -114 l 1
 708 -114 l 1
 425 -114 l 1
 425 -115 l 1
 405 -115 l 1
 385 -115 l 1
 385 -114 l 1
 104 -114 l 1
 84 -114 l 1
 84 -94 l 1
 84 -74 l 1
 104 -74 l 1
 385 -74 l 1
 385 7 l 1
 385 27 l 1
 405 27 l 1
 425 27 l 1
 425 7 l 1
 425 -74 l 1
 708 -74 l 1
 728 -74 l 1
 728 -94 l 1
EndSplineSet
EndChar

StartChar: aubu.ccv
Encoding: 125 -1 123
Width: 0
VWidth: 0
Flags: W
HStem: -114 40<124 688>
VStem: 84 40<-363 -114> 688 40<-363 -114>
AnchorPoint: "Above" 405 0 mark 0
LayerCount: 2
Back
SplineSet
708 -343 m 29
 708 -94 l 29
 104 -94 l 29
 104 -343 l 1053
EndSplineSet
Fore
SplineSet
708 -363 m 1
 688 -363 l 1
 688 -343 l 1
 688 -114 l 1
 124 -114 l 1
 124 -343 l 1
 124 -363 l 1
 104 -363 l 1
 84 -363 l 1
 84 -343 l 1
 84 -94 l 2
 84 -85 92 -74 104 -74 c 2
 708 -74 l 2
 717 -74 728 -82 728 -94 c 2
 728 -343 l 1
 728 -363 l 1
 708 -363 l 1
EndSplineSet
EndChar

StartChar: denpabu.ccv.1
Encoding: 127 -1 143
Width: 810
VWidth: 0
Flags: W
HStem: 35 40<191.4 256.6> 581 40<191.4 256.6>
VStem: 84 40<186.808 469.192> 324 40<186.808 469.192>
AnchorPoint: "Above" 405 0 basechar 0
LayerCount: 2
Back
SplineSet
104 328 m 4
 104 479 158 601 224 601 c 4
 290 601 344 479 344 328 c 4
 344 177 290 55 224 55 c 4
 158 55 104 177 104 328 c 4
EndSplineSet
Fore
SplineSet
124 328 m 0
 124 175 182 75 224 75 c 0
 266 75 324 175 324 328 c 0
 324 481 266 581 224 581 c 0
 182 581 124 481 124 328 c 0
84 328 m 0
 84 477 134 621 224 621 c 0
 314 621 364 477 364 328 c 0
 364 179 314 35 224 35 c 0
 134 35 84 179 84 328 c 0
EndSplineSet
EndChar

StartChar: .notdef
Encoding: 490 -1 145
Width: 1000
VWidth: 0
LayerCount: 2
Back
SplineSet
377 602 m 29
 377 602 104.002929688 428.009765625 104 129 c 4
 103.997070312 -168.991210938 377 -343 377 -343 c 1053
EndSplineSet
EndChar

StartChar: colon
Encoding: 492 58 147
Width: 326
VWidth: 0
Flags: W
HStem: -41 96<134.385 215.615> 205 96<134.385 215.615>
VStem: 126 98<-32.668 46.668 213.332 292.668>
LayerCount: 2
Back
SplineSet
175 7 m 1049
EndSplineSet
Fore
SplineSet
126 7 m 4
 126 33 148 55 175 55 c 4
 202 55 224 33 224 7 c 4
 224 -19 202 -41 175 -41 c 4
 148 -41 126 -19 126 7 c 4
126 253 m 0
 126 279 148 301 175 301 c 0
 202 301 224 279 224 253 c 0
 224 227 202 205 175 205 c 0
 148 205 126 227 126 253 c 0
EndSplineSet
EndChar

StartChar: question
Encoding: 493 63 148
Width: 698
VWidth: 0
Flags: W
HStem: -216 96<308.385 389.615> 582 40<233.567 462.052>
VStem: 99 40<339.573 501.348> 300 98<-207.668 -128.332> 329 40<-14 101.32> 559 40<360.562 500.037>
LayerCount: 2
Back
SplineSet
212 253 m 29
 212 253 119 299 119 427 c 7
 119 510 178 602 349 602 c 4
 520 602 579 507.005859375 579 427 c 7
 579 252.986328125 350.50390625 248 349 6 c 1028
EndSplineSet
Fore
SplineSet
300 -168 m 4xf4
 300 -142 322 -120 349 -120 c 4
 376 -120 398 -142 398 -168 c 4
 398 -194 376 -216 349 -216 c 4
 322 -216 300 -194 300 -168 c 4xf4
230 244 m 1
 221 226 l 1
 203 235 l 2
 200 237 99 288 99 427 c 0
 99 521 169 622 349 622 c 0
 529 622 599 518 599 427 c 0
 599 230 370 232 369 6 c 1
 369 -14 l 1
 349 -14 l 1
 329 -14 l 1
 329 6 l 2xec
 331 264 559 276 559 427 c 0
 559 496 511 582 349 582 c 0
 187 582 139 499 139 427 c 0
 139 313 219 272 221 271 c 2
 239 262 l 1
 230 244 l 1
EndSplineSet
EndChar

StartChar: exclam
Encoding: 494 33 149
Width: 350
VWidth: 0
Flags: W
HStem: -216 96<134.385 215.615>
VStem: 126 98<-207.668 -128.332> 151 40<35 622>
LayerCount: 2
Back
SplineSet
171 602 m 29
 171 55 l 1053
EndSplineSet
Fore
SplineSet
171 622 m 1xa0
 191 622 l 1
 191 602 l 1
 191 55 l 1
 191 35 l 1
 171 35 l 1
 151 35 l 1
 151 55 l 1
 151 602 l 1
 151 622 l 1
 171 622 l 1xa0
126 -168 m 0xc0
 126 -142 148 -120 175 -120 c 0
 202 -120 224 -142 224 -168 c 0
 224 -194 202 -216 175 -216 c 0
 148 -216 126 -194 126 -168 c 0xc0
EndSplineSet
EndChar

StartChar: less
Encoding: 495 60 150
Width: 807
VWidth: 0
Flags: W
LayerCount: 2
Back
SplineSet
635 427 m 29
 134 130 l 29
 636 -168 l 1053
EndSplineSet
Fore
SplineSet
652 437 m 1
 662 420 l 1
 645 410 l 1
 173 130 l 1
 646 -151 l 1
 663 -161 l 1
 653 -178 l 1
 643 -195 l 1
 626 -185 l 1
 124 113 l 2
 122 114 120 116 118 118 c 0
 111 127 114 141 124 147 c 2
 625 444 l 1
 642 454 l 1
 652 437 l 1
EndSplineSet
EndChar

StartChar: braceleft
Encoding: 497 123 152
Width: 535
VWidth: 0
Flags: W
HStem: -363 40<323.839 425> 109 40<85.0534 140.102> 582 40<325.568 425>
VStem: 204 40<-246.802 4.77319 252.565 503.6>
LayerCount: 2
Back
SplineSet
405 602 m 5
 405 602 224 601 224 426 c 7
 224 128.958007812 105 129 105 129 c 29
 105 129 224 129.006835938 224 -169 c 7
 224 -344.002929688 405 -343 405 -343 c 1029
EndSplineSet
Fore
SplineSet
425 602 m 1
 425 582 l 1
 405 582 l 2
 398 582 244 579 244 426 c 0
 244 238 197 161 155 129 c 1
 198 97 244 19 244 -169 c 0
 244 -322 399 -323 405 -323 c 2
 425 -323 l 1
 425 -343 l 1
 425 -363 l 1
 406 -363 l 2
 406 -363 204 -364 204 -169 c 0
 204 108 104 109 104 109 c 1
 96 110 86 116 85 127 c 0
 84 138 94 148 102 149 c 0
 105 149 204 149 204 426 c 0
 204 620 405 622 405 622 c 1
 425 622 l 1
 425 602 l 1
EndSplineSet
EndChar

StartChar: guillemotleft
Encoding: 160 171 154
Width: 800
VWidth: 0
Flags: W
LayerCount: 2
Back
SplineSet
586 273 m 5
 405 130 l 5
 586 -13 l 1029
405 273 m 5
 224 130 l 5
 405 -13 l 1029
EndSplineSet
Fore
SplineSet
601.693215591 285.398507346 m 1
 614.091722937 269.705291754 l 1
 598.398507346 257.306784409 l 1
 437.261948059 130 l 1
 598.398507235 2.6932156791 l 1
 598.398507346 2.69321559141 l 1
 614.091722937 -9.70529175429 l 1
 601.693215591 -25.3985073457 l 1
 589.294708246 -41.0917229371 l 1
 573.601492654 -28.6932155914 l 1
 572.816831875 -28.0732902241 573.601492654 -29.6932155914 573.601492654 -28.6932155914 c 1
 392.601492654 114.306784409 l 1
 392.601492654 114.306784409 391.130850139 115.541691094 390.327909622 116.408467197 c 0
 382.515276999 124.84222177 383.580778812 138.566353274 392.601492654 145.693215591 c 2
 573.601492654 288.693215591 l 1
 589.294708246 301.091722937 l 1
 601.693215591 285.398507346 l 1
420.693215591 285.398507346 m 1
 433.091722937 269.705291754 l 1
 417.398507346 257.306784409 l 1
 256.261948059 130 l 1
 417.398507235 2.69321567903 l 1
 417.398507346 2.69321559141 l 1
 433.091722937 -9.70529175429 l 1
 420.693215591 -25.3985073457 l 1
 408.294708246 -41.0917229371 l 1
 392.601492654 -28.6932155914 l 1
 391.816831875 -28.0732902241 392.601492654 -29.6932155914 392.601492654 -28.6932155914 c 1
 211.601492654 114.306784409 l 1
 211.601492654 114.306784409 210.130850139 115.541691094 209.327909622 116.408467197 c 0
 201.515276999 124.84222177 202.580778812 138.566353274 211.601492654 145.693215591 c 2
 392.601492654 288.693215591 l 1
 408.294708246 301.091722937 l 1
 420.693215591 285.398507346 l 1
EndSplineSet
EndChar

StartChar: semicolon
Encoding: 503 59 155
Width: 326
VWidth: 0
Flags: W
HStem: -41 96<134.385 178.762> 205 96<134.385 215.615>
VStem: 126 98<213.332 292.668>
LayerCount: 2
Back
SplineSet
207 7 m 29
 207 7 275 -76 175 -168 c 1028
EndSplineSet
Fore
SplineSet
194 23 m 1
 210 35 l 1
 223 20 l 2
 225 17 300 -81 189 -183 c 2
 174 -196 l 1
 160 -182 l 1
 147 -167 l 1
 161 -153 l 2
 247 -74 193 -9 191 -6 c 2
 179 10 l 1
 194 23 l 1
126 7 m 0
 126 33 148 55 175 55 c 0
 202 55 224 33 224 7 c 0
 224 -19 202 -41 175 -41 c 0
 148 -41 126 -19 126 7 c 0
126 253 m 0
 126 279 148 301 175 301 c 0
 202 301 224 279 224 253 c 0
 224 227 202 205 175 205 c 0
 148 205 126 227 126 253 c 0
EndSplineSet
EndChar

StartChar: quotedbl
Encoding: 504 34 156
Width: 407
VWidth: 0
Flags: W
HStem: 407 215<112 152 266 306>
VStem: 112 40<407 622> 266 40<407 622>
LayerCount: 2
Back
SplineSet
286 602 m 29
 286 427 l 1053
132 602 m 29
 132 427 l 1053
EndSplineSet
Fore
SplineSet
286 622 m 1
 306 622 l 1
 306 602 l 1
 306 427 l 1
 306 407 l 1
 286 407 l 1
 266 407 l 1
 266 427 l 1
 266 602 l 1
 266 622 l 1
 286 622 l 1
132 622 m 1
 152 622 l 1
 152 602 l 1
 152 427 l 1
 152 407 l 1
 132 407 l 1
 112 407 l 1
 112 427 l 1
 112 602 l 1
 112 622 l 1
 132 622 l 1
EndSplineSet
EndChar

StartChar: parenleft
Encoding: 162 40 160
Width: 500
VWidth: 0
Flags: W
VStem: 84 40<5.1489 253.047>
LayerCount: 2
Back
SplineSet
377 602 m 25
 377 602 104.002929688 428.009765625 104 129 c 0
 103.997070312 -168.991210938 377 -343 377 -343 c 1049
EndSplineSet
Fore
SplineSet
394 613 m 1
 405 596 l 1
 388 585 l 2
 385 583 124 414 124 129 c 0
 124 -155 386 -325 388 -326 c 2
 405 -337 l 1
 394 -354 l 1
 383 -371 l 1
 367 -360 l 2
 365 -359 84 -182 84 129 c 0
 84 440 364 618 366 619 c 2
 383 630 l 1
 394 613 l 1
EndSplineSet
EndChar

StartChar: denpabu_iy
Encoding: 174 -1 161
Width: 810
VWidth: 2197
Flags: W
HStem: 35 40<152 700> 236 40<396.044 539.956> 580 40<396.044 539.956>
VStem: 112 40<75 618> 280 40<352.799 503.201> 616 40<352.799 503.201>
AnchorPoint: "Above" 405 0 basechar 0
LayerCount: 2
Back
SplineSet
300 428 m 4
 300 523 375 600 468 600 c 4
 561 600 636 523 636 428 c 4
 636 333 561 256 468 256 c 4
 375 256 300 333 300 428 c 4
EndSplineSet
Fore
SplineSet
320 428 m 0
 320 344 386 276 468 276 c 0
 550 276 616 344 616 428 c 0
 616 512 550 580 468 580 c 0
 386 580 320 512 320 428 c 0
280 428 m 0
 280 534 364 620 468 620 c 0
 572 620 656 534 656 428 c 0
 656 322 572 236 468 236 c 0
 364 236 280 322 280 428 c 0
132 618 m 1
 152 618 l 1
 152 598 l 1
 152 75 l 1
 680 75 l 1
 700 76 l 1
 700 56 l 1
 700 36 l 1
 680 35 l 1
 132 35 l 2
 123 35 112 43 112 55 c 2
 112 598 l 1
 112 618 l 1
 132 618 l 1
EndSplineSet
Ligature2: "Vdenpabu subtable" denpabu iy
EndChar

StartChar: denpabu_uy
Encoding: 175 -1 162
Width: 810
VWidth: 2197
Flags: W
HStem: 35 40<112 662> 235 40<271.044 414.956> 579 40<271.044 414.956>
VStem: 155 40<351.799 502.201> 491 40<351.799 502.201> 662 40<75 624>
AnchorPoint: "Above" 405 0 basechar 0
LayerCount: 2
Back
SplineSet
175 427 m 0
 175 522 250 599 343 599 c 0
 436 599 511 522 511 427 c 0
 511 332 436 255 343 255 c 0
 250 255 175 332 175 427 c 0
111.868164062 55.494140625 m 1
 111.868164062 75.494140625 l 1
 131.868164062 75.494140625 l 1
 662.41796875 75.494140625 l 1
 662.41796875 604.395507812 l 1
 662.41796875 624.395507812 l 1
 682.41796875 624.395507812 l 1
 702.41796875 624.395507812 l 1
 702.41796875 604.395507812 l 1
 702.41796875 55.494140625 l 2
 702.41796875 46.9102171589 694.523999034 35.494140625 682.41796875 35.494140625 c 2
 131.868164062 35.494140625 l 1
 111.868164062 35.494140625 l 1
 111.868164062 55.494140625 l 1
EndSplineSet
Fore
SplineSet
195 427 m 0
 195 343 261 275 343 275 c 0
 425 275 491 343 491 427 c 0
 491 511 425 579 343 579 c 0
 261 579 195 511 195 427 c 0
155 427 m 0
 155 533 239 619 343 619 c 0
 447 619 531 533 531 427 c 0
 531 321 447 235 343 235 c 0
 239 235 155 321 155 427 c 0
112 55 m 1
 112 75 l 1
 132 75 l 1
 662 75 l 1
 662 604 l 1
 662 624 l 1
 682 624 l 1
 702 624 l 1
 702 604 l 1
 702 55 l 2
 702 46 694 35 682 35 c 2
 132 35 l 1
 112 35 l 1
 112 55 l 1
EndSplineSet
Ligature2: "Vdenpabu subtable" denpabu uy
EndChar
